<svg width="121" height="16" viewBox="0 0 121 16" fill="none" xmlns="http://www.w3.org/2000/svg">
<g clip-path="url(#clip0_4907_855)">
<path d="M21.9983 0.25H2.55609C1.45479 0.25 0.562012 1.14543 0.562012 2.25V13.75C0.562012 14.8546 1.45479 15.75 2.55609 15.75H21.9983C23.0996 15.75 23.9924 14.8546 23.9924 13.75V2.25C23.9924 1.14543 23.0996 0.25 21.9983 0.25Z" fill="white" stroke="black" stroke-opacity="0.2" stroke-width="0.5"/>
<path d="M3.09201 5.91444C2.57042 5.62751 1.97513 5.39674 1.30957 5.23659L1.33749 5.11188H4.06636C4.43624 5.12489 4.73638 5.23651 4.83405 5.63071L5.4271 8.46659L5.60878 9.32073L7.26983 5.11188H9.06332L6.39734 11.2775H4.60375L3.09201 5.91444ZM10.3826 11.2841H8.68648L9.74735 5.11188H11.4434L10.3826 11.2841ZM16.5311 5.26277L16.3005 6.59559L16.1471 6.53004C15.8401 6.40525 15.435 6.28054 14.8836 6.29371C14.214 6.29371 13.9137 6.56277 13.9067 6.82546C13.9067 7.11441 14.27 7.30484 14.8632 7.58725C15.8404 8.02719 16.2937 8.56557 16.2869 9.26819C16.2732 10.5486 15.1146 11.3761 13.3349 11.3761C12.574 11.3694 11.8411 11.2181 11.4433 11.0476L11.6806 9.66205L11.904 9.76066C12.4554 9.99071 12.8182 10.089 13.4954 10.089C13.9837 10.089 14.5072 9.89838 14.5139 9.48488C14.5139 9.21565 14.2909 9.01851 13.6347 8.71646C12.9927 8.42087 12.1343 7.92848 12.1482 7.04198C12.1554 5.84042 13.3349 5 15.0099 5C15.666 5 16.1966 5.13789 16.5311 5.26277ZM18.7854 9.09749H20.1952C20.1254 8.78889 19.8043 7.31147 19.8043 7.31147L19.6857 6.77964C19.602 7.00943 19.4555 7.38373 19.4626 7.37056C19.4626 7.37056 18.9251 8.7429 18.7854 9.09749ZM20.879 5.11188L22.2474 11.284H20.6769C20.6769 11.284 20.5233 10.5748 20.4746 10.3581H18.2969C18.2339 10.5222 17.9409 11.284 17.9409 11.284H16.1612L18.6806 5.62399C18.8552 5.22342 19.1625 5.11188 19.5671 5.11188H20.879Z" fill="#171E6C"/>
</g>
<g clip-path="url(#clip1_4907_855)">
<path d="M54.1765 0H34.2358C33.1345 0 32.2417 0.89543 32.2417 2V14C32.2417 15.1046 33.1345 16 34.2358 16H54.1765C55.2778 16 56.1706 15.1046 56.1706 14V2C56.1706 0.89543 55.2778 0 54.1765 0Z" fill="#252525"/>
<path d="M41.2152 13C43.9684 13 46.2004 10.7614 46.2004 8C46.2004 5.23858 43.9684 3 41.2152 3C38.4619 3 36.23 5.23858 36.23 8C36.23 10.7614 38.4619 13 41.2152 13Z" fill="#EB001B"/>
<path d="M47.1971 13C49.9503 13 52.1823 10.7614 52.1823 8C52.1823 5.23858 49.9503 3 47.1971 3C44.4439 3 42.2119 5.23858 42.2119 8C42.2119 10.7614 44.4439 13 47.1971 13Z" fill="#F79E1B"/>
<path fill-rule="evenodd" clip-rule="evenodd" d="M44.206 3.99963C45.4168 4.91184 46.2001 6.36418 46.2001 8C46.2001 9.63582 45.4168 11.0882 44.206 12.0004C42.9951 11.0882 42.2119 9.63582 42.2119 8C42.2119 6.36418 42.9951 4.91184 44.206 3.99963Z" fill="#FF5F00"/>
</g>
<g clip-path="url(#clip2_4907_855)">
<path d="M86.1057 0H66.165C65.0637 0 64.1709 0.89543 64.1709 2V14C64.1709 15.1046 65.0637 16 66.165 16H86.1057C87.207 16 88.0998 15.1046 88.0998 14V2C88.0998 0.89543 87.207 0 86.1057 0Z" fill="#016FD0"/>
<path fill-rule="evenodd" clip-rule="evenodd" d="M77.894 13.3938V7.69244L88.0115 7.70155V9.27644L86.8421 10.5298L88.0115 11.7947V13.403H86.1445L85.1522 12.3049L84.167 13.4072L77.894 13.3938Z" fill="#FFFFFE"/>
<path fill-rule="evenodd" clip-rule="evenodd" d="M78.5698 12.7688V8.31989H82.3309V9.34477H79.7876V10.0405H82.2703V11.0483H79.7876V11.7316H82.3309V12.7688H78.5698Z" fill="#016FD0"/>
<path fill-rule="evenodd" clip-rule="evenodd" d="M82.3121 12.7688L84.3933 10.5418L82.312 8.32001H83.9229L85.1946 9.73004L86.4699 8.32001H88.0115V8.35501L85.9747 10.5418L88.0115 12.7057V12.7688H86.4544L85.1601 11.3446L83.8792 12.7688H82.3121Z" fill="#016FD0"/>
<path fill-rule="evenodd" clip-rule="evenodd" d="M78.3662 2.63196H80.805L81.6616 4.58281V2.63196H84.6725L85.1917 4.09353L85.7126 2.63196H88.0118V8.33335H75.8613L78.3662 2.63196Z" fill="#FFFFFE"/>
<path fill-rule="evenodd" clip-rule="evenodd" d="M78.828 3.2514L76.8599 7.69658H78.2098L78.5811 6.80641H80.593L80.9641 7.69658H82.3476L80.3876 3.2514H78.828ZM78.9972 5.80884L79.5874 4.39377L80.1772 5.80884H78.9972Z" fill="#016FD0"/>
<path fill-rule="evenodd" clip-rule="evenodd" d="M82.3291 7.69575V3.25067L84.2266 3.25721L85.203 5.98994L86.1857 3.25067H88.0118V7.69575L86.8367 7.70619V4.65284L85.7274 7.69575H84.6548L83.5226 4.64241V7.69575H82.3291Z" fill="#016FD0"/>
</g>
<g clip-path="url(#clip3_4907_855)">
<path d="M118.031 15.7499L118.034 15.7499C118.986 15.7581 119.767 14.9773 119.779 14.0042L119.779 2.0063C119.775 1.53569 119.588 1.08617 119.26 0.756802C118.933 0.428269 118.492 0.246149 118.031 0.250071L98.0941 0.250062C97.6359 0.246149 97.1947 0.428269 96.8674 0.756802C96.5392 1.08617 96.3525 1.53569 96.3486 2.00426L96.3486 13.9937C96.3525 14.4643 96.5392 14.9138 96.8674 15.2432C97.1947 15.5717 97.6359 15.7538 98.0962 15.7499H118.031ZM118.03 16.2499C118.03 16.2499 118.03 16.2499 118.029 16.2499L118.031 16.2499H118.03Z" fill="white" stroke="black" stroke-opacity="0.2" stroke-width="0.5"/>
<path d="M108.674 15.9999H118.031C118.557 16.0043 119.062 15.7993 119.436 15.4299C119.811 15.0605 120.024 14.557 120.028 14.0303V11.6716C116.495 13.7059 112.663 15.1668 108.674 15.9999Z" fill="#F27712"/>
<path d="M119.203 9.29649H118.353L117.396 8.03029H117.305V9.29649H116.612V6.15167H117.635C118.436 6.15167 118.898 6.4827 118.898 7.07856C118.898 7.56684 118.609 7.88132 118.089 7.98063L119.203 9.29649ZM118.18 7.10339C118.18 6.79718 117.949 6.63994 117.52 6.63994H117.305V7.59167H117.503C117.949 7.59167 118.18 7.42615 118.18 7.10339ZM114.186 6.15167H116.15V6.68132H114.879V7.38477H116.1V7.9227H114.879V8.77512H116.15V9.30477H114.186V6.15167ZM111.958 9.37925L110.457 6.14339H111.216L112.165 8.26201L113.122 6.14339H113.864L112.346 9.37925H111.975H111.958ZM105.679 9.37098C104.623 9.37098 103.798 8.65098 103.798 7.71581C103.798 6.80546 104.639 6.06891 105.695 6.06891C105.993 6.06891 106.24 6.12684 106.545 6.25925V6.98753C106.314 6.75971 106.003 6.63194 105.679 6.63167C105.019 6.63167 104.516 7.11167 104.516 7.71581C104.516 8.35305 105.011 8.80822 105.712 8.80822C106.026 8.80822 106.265 8.70891 106.545 8.46063V9.18891C106.232 9.32132 105.968 9.37098 105.679 9.37098ZM103.583 8.33649C103.583 8.94891 103.08 9.37098 102.354 9.37098C101.826 9.37098 101.446 9.18891 101.124 8.77512L101.578 8.38615C101.735 8.66753 101.999 8.80822 102.329 8.80822C102.643 8.80822 102.865 8.61787 102.865 8.3696C102.865 8.22891 102.799 8.12132 102.659 8.03856C102.505 7.96371 102.345 7.90277 102.18 7.85649C101.529 7.6496 101.306 7.42615 101.306 6.98753C101.306 6.47443 101.784 6.08546 102.411 6.08546C102.808 6.08546 103.162 6.2096 103.459 6.44132L103.096 6.85512C102.952 6.6969 102.749 6.60677 102.535 6.60684C102.238 6.60684 102.024 6.75581 102.024 6.95443C102.024 7.11994 102.147 7.21098 102.56 7.35167C103.352 7.59994 103.583 7.83167 103.583 8.34477V8.33649ZM100.175 6.15167H100.868V9.30477H100.175V6.15167ZM97.9475 9.30477H96.9243V6.15167H97.9475C99.0697 6.15167 99.8453 6.79718 99.8453 7.72408C99.8453 8.19581 99.6143 8.6427 99.2099 8.94063C98.8634 9.18891 98.4756 9.30477 97.9392 9.30477H97.9475ZM98.7561 6.93787C98.5251 6.75581 98.261 6.6896 97.8072 6.6896H97.6174V8.77512H97.8072C98.2528 8.77512 98.5333 8.69236 98.7561 8.52684C98.9954 8.32822 99.1357 8.03029 99.1357 7.72408C99.1357 7.41787 98.9954 7.12822 98.7561 6.93787Z" fill="black"/>
<path d="M108.476 6.06891C107.569 6.06891 106.826 6.79718 106.826 7.69925C106.826 8.65925 107.536 9.37925 108.476 9.37925C109.401 9.37925 110.127 8.65098 110.127 7.72408C110.127 6.79718 109.409 6.06891 108.476 6.06891Z" fill="#F27712"/>
</g>
<defs>
<clipPath id="clip0_4907_855">
<rect width="23.9289" height="16" fill="white" transform="translate(0.312988)"/>
</clipPath>
<clipPath id="clip1_4907_855">
<rect width="23.9289" height="16" fill="white" transform="translate(32.2417)"/>
</clipPath>
<clipPath id="clip2_4907_855">
<rect width="23.9289" height="16" fill="white" transform="translate(64.1709)"/>
</clipPath>
<clipPath id="clip3_4907_855">
<rect width="23.9289" height="16" fill="white" transform="translate(96.0996)"/>
</clipPath>
</defs>
</svg>
