<svg width="25" height="17" viewBox="0 0 25 17" fill="none" xmlns="http://www.w3.org/2000/svg">
<g clip-path="url(#clip0_15_701)">
<path opacity="0.2" d="M16.0087 1.56738H1.54995C0.874036 1.56738 0.0805664 2.34616 0.0805664 3.03677V14.0572C0.0805664 14.7478 0.874036 15.5266 1.54995 15.5266H19.9173C20.5932 15.5266 21.3867 14.7478 21.3867 14.0572V8.52493C20.7678 9.08168 20.0034 9.45113 19.1826 9.59024V9.64902C19.1826 10.1339 18.9181 10.3837 18.4479 10.3837H2.28465C1.81444 10.3837 1.54995 10.1339 1.54995 9.64902V8.91432C1.54995 8.42942 1.81444 8.17963 2.28465 8.17963H15.1638C14.7397 7.70963 14.4222 7.15353 14.233 6.54941C14.0438 5.94528 13.9874 5.30741 14.0676 4.67945C14.1479 4.0515 14.3629 3.4483 14.6979 2.91117C15.0329 2.37403 15.4801 1.91564 16.0087 1.56738V1.56738Z" fill="#697386"/>
<path d="M14.2895 3.77148H0.0805664V5.97557H14.0985C13.9751 5.23653 14.0408 4.47827 14.2895 3.77148Z" fill="#697386"/>
</g>
<path d="M18.8929 10.2857C17.5321 10.2857 16.2271 9.74388 15.2649 8.77941C14.3028 7.81493 13.7622 6.50683 13.7622 5.14286C13.7622 3.77889 14.3028 2.47078 15.2649 1.50631C16.2271 0.541835 17.5321 0 18.8929 0C20.2536 0 21.5586 0.541835 22.5208 1.50631C23.483 2.47078 24.0235 3.77889 24.0235 5.14286C24.0235 6.50683 23.483 7.81493 22.5208 8.77941C21.5586 9.74388 20.2536 10.2857 18.8929 10.2857ZM16.8553 3.01224H16.2762L14.8616 3.73224V4.46694L15.9831 3.87918V7.27347H16.8626V3.01224H16.8553ZM18.5411 3.6C18.9588 3.6 19.252 3.8351 19.252 4.17306C19.252 4.54041 18.9075 4.79755 18.4091 4.79755H18.1892V5.42204H18.4531C18.9808 5.42204 19.34 5.68653 19.34 6.06857C19.34 6.43592 18.9882 6.68571 18.4898 6.68571C18.1233 6.68571 17.7568 6.56816 17.3757 6.34041V7.0751C17.7861 7.25143 18.1966 7.34694 18.5997 7.34694C19.5599 7.34694 20.2195 6.85469 20.2195 6.14204C20.2195 5.64245 19.9117 5.23837 19.3986 5.07673C19.8384 4.9298 20.1242 4.54041 20.1242 4.09959C20.1242 3.40898 19.5159 2.93878 18.6363 2.93878C18.2399 2.94318 17.8484 3.02816 17.4856 3.18857V3.90857C17.8374 3.7102 18.1966 3.6 18.5411 3.6ZM21.7074 5.20163C22.2425 5.20163 22.6163 5.51755 22.6163 5.92898C22.6163 6.36245 22.2425 6.66367 21.7074 6.66367C21.3849 6.66367 21.0478 6.56082 20.7033 6.34776V7.10449C21.0624 7.26612 21.4289 7.34694 21.788 7.34694C21.9786 7.34694 22.1545 7.31755 22.3231 7.27347C22.7042 6.64898 22.9241 5.92898 22.9241 5.15755L22.9095 4.84898C22.6369 4.68729 22.3245 4.60581 22.0079 4.61388C21.876 4.61388 21.7367 4.62122 21.5901 4.64327V3.68816H22.6456C22.5541 3.453 22.4412 3.22675 22.3084 3.01224H20.8279V5.32653C21.1211 5.25306 21.4142 5.20163 21.7074 5.20163Z" fill="#697386"/>
<defs>
<clipPath id="clip0_15_701">
<rect width="23.5102" height="15.4286" fill="white" transform="translate(0.0805664 1.56738)"/>
</clipPath>
</defs>
</svg>
