<svg width="36" height="36" viewBox="0 0 36 36" fill="none" xmlns="http://www.w3.org/2000/svg">
<path d="M36 18C36 27.941 27.941 36 18 36C8.059 36 0 27.941 0 18C0 8.059 8.059 0 18 0C27.941 0 36 8.059 36 18Z" fill="#FFCC4D"/>
<path d="M18 21C14.377 21 11.973 20.578 9 20C8.321 19.869 7 20 7 22C7 26 11.595 31 18 31C24.404 31 29 26 29 22C29 20 27.679 19.868 27 20C24.027 20.578 21.623 21 18 21Z" fill="#664500"/>
<path d="M9 22C9 22 12 23 18 23C24 23 27 22 27 22C27 22 25 26 18 26C11 26 9 22 9 22Z" fill="white"/>
<path d="M15.6818 4.413L11.1398 5.214L8.79977 0.960999C8.54177 0.491999 8.01177 0.240999 7.48777 0.332999C6.96077 0.425999 6.55077 0.843999 6.46877 1.372L5.72377 6.169L1.18177 6.97C0.646774 7.064 0.233774 7.495 0.160774 8.034C0.087774 8.573 0.371774 9.097 0.863774 9.331L4.93377 11.263L4.18577 16.075C4.10277 16.611 4.37477 17.139 4.85877 17.384C5.03777 17.474 5.22977 17.517 5.42077 17.517C5.74777 17.517 6.07077 17.389 6.31177 17.145L9.82377 13.584L14.3418 15.729C14.8318 15.961 15.4158 15.852 15.7878 15.457C16.1598 15.062 16.2338 14.473 15.9728 13.998L13.6248 9.73L16.7898 6.522C17.1718 6.135 17.2588 5.545 17.0068 5.063C16.7528 4.581 16.2138 4.32 15.6818 4.413ZM20.3178 4.413L24.8598 5.214L27.1998 0.960999C27.4578 0.491999 27.9878 0.240999 28.5118 0.332999C29.0378 0.425999 29.4478 0.843999 29.5298 1.372L30.2748 6.169L34.8168 6.97C35.3528 7.064 35.7658 7.494 35.8378 8.033C35.9098 8.572 35.6268 9.096 35.1348 9.33L31.0648 11.262L31.8128 16.074C31.8958 16.61 31.6238 17.138 31.1398 17.383C30.9608 17.473 30.7688 17.516 30.5778 17.516C30.2508 17.516 29.9278 17.388 29.6868 17.144L26.1748 13.583L21.6568 15.728C21.1668 15.96 20.5828 15.851 20.2108 15.456C19.8388 15.061 19.7648 14.472 20.0258 13.997L22.3738 9.73L19.2088 6.522C18.8268 6.135 18.7398 5.545 18.9918 5.063C19.2468 4.581 19.7858 4.32 20.3178 4.413Z" fill="#E95F28"/>
</svg>
