<svg width="32" height="40" viewBox="0 0 32 40" fill="none" xmlns="http://www.w3.org/2000/svg">
<path d="M31 16.6667C31 28.3334 16 38.3334 16 38.3334C16 38.3334 1 28.3334 1 16.6667C1 12.6884 2.58035 8.87313 5.3934 6.06008C8.20644 3.24704 12.0218 1.66669 16 1.66669C19.9782 1.66669 23.7936 3.24704 26.6066 6.06008C29.4196 8.87313 31 12.6884 31 16.6667Z" stroke="#666666" stroke-width="2" stroke-linecap="round" stroke-linejoin="round"/>
<path d="M16 21.6667C18.7614 21.6667 21 19.4281 21 16.6667C21 13.9053 18.7614 11.6667 16 11.6667C13.2386 11.6667 11 13.9053 11 16.6667C11 19.4281 13.2386 21.6667 16 21.6667Z" stroke="#666666" stroke-width="2" stroke-linecap="round" stroke-linejoin="round"/>
</svg>
