<svg width="169" height="71" viewBox="0 0 169 71" fill="none" xmlns="http://www.w3.org/2000/svg">
<path d="M152.083 8.33335C153.711 8.65096 155.207 9.44712 156.38 10.6199C157.553 11.7927 158.349 13.2888 158.667 14.9167L152.083 8.33335ZM152.083 1.66669C155.465 2.04241 158.619 3.55698 161.027 5.9617C163.435 8.36642 164.953 11.5184 165.333 14.9L152.083 1.66669ZM163.667 28.2V33.2C163.669 33.6642 163.573 34.1236 163.387 34.5489C163.202 34.9742 162.929 35.356 162.587 35.6698C162.245 35.9836 161.841 36.2225 161.401 36.3712C160.962 36.5199 160.496 36.5751 160.033 36.5334C154.905 35.9761 149.978 34.2236 145.65 31.4167C141.623 28.8578 138.209 25.4436 135.65 21.4167C132.833 17.0687 131.08 12.1183 130.533 6.96669C130.492 6.5058 130.546 6.04129 130.694 5.60273C130.842 5.16417 131.079 4.76117 131.391 4.41939C131.703 4.07761 132.083 3.80454 132.506 3.61756C132.93 3.43058 133.387 3.33379 133.85 3.33335H138.85C139.659 3.32539 140.443 3.61182 141.056 4.13924C141.67 4.66666 142.07 5.3991 142.183 6.20002C142.394 7.80013 142.786 9.37123 143.35 10.8834C143.574 11.4799 143.623 12.1282 143.49 12.7515C143.357 13.3748 143.048 13.9469 142.6 14.4L140.483 16.5167C142.856 20.6893 146.311 24.1441 150.483 26.5167L152.6 24.4C153.053 23.9519 153.625 23.6431 154.249 23.5102C154.872 23.3772 155.52 23.4258 156.117 23.65C157.629 24.2143 159.2 24.6056 160.8 24.8167C161.61 24.9309 162.349 25.3387 162.878 25.9625C163.406 26.5863 163.687 27.3826 163.667 28.2Z" stroke="#666666" stroke-width="2" stroke-linecap="round" stroke-linejoin="round"/>
<path d="M83 8.33331V31.6666" stroke="#666666" stroke-width="2" stroke-linecap="round" stroke-linejoin="round"/>
<path d="M71.3333 20H94.6666" stroke="#666666" stroke-width="2" stroke-linecap="round" stroke-linejoin="round"/>
<path d="M34 16.6667C34 28.3334 19 38.3334 19 38.3334C19 38.3334 4 28.3334 4 16.6667C4 12.6884 5.58035 8.87313 8.3934 6.06008C11.2064 3.24704 15.0218 1.66669 19 1.66669C22.9782 1.66669 26.7936 3.24704 29.6066 6.06008C32.4196 8.87313 34 12.6884 34 16.6667Z" stroke="#666666" stroke-width="2" stroke-linecap="round" stroke-linejoin="round"/>
<path d="M19 21.6667C21.7614 21.6667 24 19.4281 24 16.6667C24 13.9053 21.7614 11.6667 19 11.6667C16.2386 11.6667 14 13.9053 14 16.6667C14 19.4281 16.2386 21.6667 19 21.6667Z" stroke="#666666" stroke-width="2" stroke-linecap="round" stroke-linejoin="round"/>
<path d="M1.47461 66.9268H6.19141V68H0.155273V58.0469H1.47461V66.9268ZM7.15527 64.2334C7.15527 63.5088 7.29655 62.8571 7.5791 62.2783C7.86621 61.6995 8.2627 61.2529 8.76855 60.9385C9.27897 60.624 9.86003 60.4668 10.5117 60.4668C11.5189 60.4668 12.3324 60.8154 12.9521 61.5127C13.5765 62.21 13.8887 63.1374 13.8887 64.2949V64.3838C13.8887 65.1038 13.7497 65.751 13.4717 66.3252C13.1982 66.8949 12.804 67.3392 12.2891 67.6582C11.7786 67.9772 11.1908 68.1367 10.5254 68.1367C9.52279 68.1367 8.70931 67.7881 8.08496 67.0908C7.46517 66.3936 7.15527 65.4707 7.15527 64.3223V64.2334ZM8.42676 64.3838C8.42676 65.2041 8.61589 65.8626 8.99414 66.3594C9.37695 66.8561 9.88737 67.1045 10.5254 67.1045C11.168 67.1045 11.6784 66.8538 12.0566 66.3525C12.4349 65.8467 12.624 65.1403 12.624 64.2334C12.624 63.4222 12.4303 62.766 12.043 62.2646C11.6602 61.7588 11.1497 61.5059 10.5117 61.5059C9.88737 61.5059 9.38379 61.7542 9.00098 62.251C8.61816 62.7477 8.42676 63.4587 8.42676 64.3838ZM19.0498 61.7383C18.8584 61.7064 18.651 61.6904 18.4277 61.6904C17.5983 61.6904 17.0355 62.0436 16.7393 62.75V68H15.4746V60.6035H16.7051L16.7256 61.458C17.1403 60.7972 17.7282 60.4668 18.4893 60.4668C18.7354 60.4668 18.9222 60.4987 19.0498 60.5625V61.7383ZM23.1514 68.1367C22.1488 68.1367 21.333 67.8086 20.7041 67.1523C20.0752 66.4915 19.7607 65.6097 19.7607 64.5068V64.2744C19.7607 63.5407 19.8997 62.8867 20.1777 62.3125C20.4603 61.7337 20.8522 61.2826 21.3535 60.959C21.8594 60.6309 22.4062 60.4668 22.9941 60.4668C23.9557 60.4668 24.7031 60.7835 25.2363 61.417C25.7695 62.0505 26.0361 62.9574 26.0361 64.1377V64.6641H21.0254C21.0436 65.3932 21.2555 65.9834 21.6611 66.4346C22.0713 66.8812 22.5908 67.1045 23.2197 67.1045C23.6663 67.1045 24.0446 67.0133 24.3545 66.8311C24.6644 66.6488 24.9355 66.4072 25.168 66.1064L25.9404 66.708C25.3206 67.6605 24.391 68.1367 23.1514 68.1367ZM22.9941 61.5059C22.4837 61.5059 22.0553 61.6927 21.709 62.0664C21.3626 62.4355 21.1484 62.9551 21.0664 63.625H24.7715V63.5293C24.735 62.8867 24.5618 62.39 24.252 62.0391C23.9421 61.6836 23.5228 61.5059 22.9941 61.5059ZM28.6953 60.6035L28.7295 61.4238C29.2718 60.7858 30.0033 60.4668 30.9238 60.4668C31.9583 60.4668 32.6624 60.8633 33.0361 61.6562C33.2822 61.3008 33.6012 61.0137 33.9932 60.7949C34.3896 60.5762 34.8568 60.4668 35.3945 60.4668C37.0169 60.4668 37.8418 61.3258 37.8691 63.0439V68H36.6045V63.1191C36.6045 62.5905 36.4837 62.1963 36.2422 61.9365C36.0007 61.6722 35.5951 61.54 35.0254 61.54C34.556 61.54 34.1663 61.6813 33.8564 61.9639C33.5465 62.2419 33.3665 62.6178 33.3164 63.0918V68H32.0449V63.1533C32.0449 62.0778 31.5186 61.54 30.4658 61.54C29.6364 61.54 29.069 61.8932 28.7637 62.5996V68H27.499V60.6035H28.6953Z" fill="#666666"/>
<path d="M133.563 68H132.251V58.0469H133.563V68ZM142.02 64.3838C142.02 65.5094 141.762 66.4163 141.247 67.1045C140.732 67.7926 140.035 68.1367 139.155 68.1367C138.257 68.1367 137.551 67.8519 137.036 67.2822V70.8438H135.771V60.6035H136.927L136.988 61.4238C137.503 60.7858 138.219 60.4668 139.135 60.4668C140.023 60.4668 140.725 60.8018 141.24 61.4717C141.76 62.1416 142.02 63.0736 142.02 64.2676V64.3838ZM140.755 64.2402C140.755 63.4062 140.577 62.7477 140.222 62.2646C139.866 61.7816 139.379 61.54 138.759 61.54C137.993 61.54 137.419 61.8796 137.036 62.5586V66.0928C137.414 66.7673 137.993 67.1045 138.772 67.1045C139.379 67.1045 139.859 66.8652 140.215 66.3867C140.575 65.9036 140.755 65.1882 140.755 64.2402ZM147.939 66.0381C147.939 65.6963 147.81 65.432 147.55 65.2451C147.295 65.0537 146.846 64.8896 146.203 64.7529C145.565 64.6162 145.057 64.4521 144.679 64.2607C144.305 64.0693 144.027 63.8415 143.845 63.5771C143.667 63.3128 143.578 62.9984 143.578 62.6338C143.578 62.0277 143.833 61.515 144.344 61.0957C144.859 60.6764 145.515 60.4668 146.312 60.4668C147.151 60.4668 147.83 60.6833 148.35 61.1162C148.874 61.5492 149.136 62.1029 149.136 62.7773H147.864C147.864 62.431 147.716 62.1325 147.42 61.8818C147.128 61.6312 146.759 61.5059 146.312 61.5059C145.852 61.5059 145.492 61.6061 145.232 61.8066C144.973 62.0072 144.843 62.2692 144.843 62.5928C144.843 62.8981 144.964 63.1283 145.205 63.2832C145.447 63.4382 145.882 63.5863 146.511 63.7275C147.144 63.8688 147.657 64.0374 148.049 64.2334C148.441 64.4294 148.73 64.6663 148.917 64.9443C149.108 65.2178 149.204 65.5527 149.204 65.9492C149.204 66.61 148.94 67.141 148.411 67.542C147.882 67.9385 147.197 68.1367 146.354 68.1367C145.761 68.1367 145.237 68.0319 144.781 67.8223C144.326 67.6126 143.968 67.321 143.708 66.9473C143.453 66.569 143.325 66.1611 143.325 65.7236H144.59C144.613 66.1475 144.781 66.4847 145.096 66.7354C145.415 66.9814 145.834 67.1045 146.354 67.1045C146.832 67.1045 147.215 67.0088 147.502 66.8174C147.794 66.6214 147.939 66.3617 147.939 66.0381ZM155.418 67.2686C154.926 67.8473 154.203 68.1367 153.251 68.1367C152.463 68.1367 151.861 67.9089 151.446 67.4531C151.036 66.9928 150.829 66.3138 150.824 65.416V60.6035H152.089V65.3818C152.089 66.5029 152.545 67.0635 153.456 67.0635C154.422 67.0635 155.065 66.7035 155.384 65.9834V60.6035H156.648V68H155.445L155.418 67.2686ZM159.766 60.6035L159.8 61.4238C160.342 60.7858 161.074 60.4668 161.994 60.4668C163.029 60.4668 163.733 60.8633 164.106 61.6562C164.353 61.3008 164.672 61.0137 165.063 60.7949C165.46 60.5762 165.927 60.4668 166.465 60.4668C168.087 60.4668 168.912 61.3258 168.939 63.0439V68H167.675V63.1191C167.675 62.5905 167.554 62.1963 167.312 61.9365C167.071 61.6722 166.665 61.54 166.096 61.54C165.626 61.54 165.237 61.6813 164.927 61.9639C164.617 62.2419 164.437 62.6178 164.387 63.0918V68H163.115V63.1533C163.115 62.0778 162.589 61.54 161.536 61.54C160.707 61.54 160.139 61.8932 159.834 62.5996V68H158.569V60.6035H159.766Z" fill="#666666"/>
</svg>
