<svg width="38" height="38" viewBox="0 0 38 38" fill="none" xmlns="http://www.w3.org/2000/svg">
<path d="M23.0833 8.33335C24.7112 8.65096 26.2073 9.44712 27.3801 10.6199C28.5529 11.7927 29.349 13.2888 29.6666 14.9167L23.0833 8.33335ZM23.0833 1.66669C26.4654 2.04241 29.6193 3.55698 32.027 5.9617C34.4348 8.36642 35.9533 11.5184 36.3333 14.9L23.0833 1.66669ZM34.6666 28.2V33.2C34.6685 33.6642 34.5734 34.1236 34.3875 34.5489C34.2015 34.9742 33.9288 35.356 33.5868 35.6698C33.2447 35.9836 32.8409 36.2225 32.4012 36.3712C31.9615 36.5199 31.4956 36.5751 31.0333 36.5334C25.9047 35.9761 20.9783 34.2236 16.65 31.4167C12.623 28.8578 9.20886 25.4436 6.64997 21.4167C3.83327 17.0687 2.08037 12.1183 1.5333 6.96669C1.49165 6.5058 1.54643 6.04129 1.69414 5.60273C1.84185 5.16417 2.07925 4.76117 2.39125 4.41939C2.70324 4.07761 3.08298 3.80454 3.50629 3.61756C3.9296 3.43058 4.3872 3.33379 4.84997 3.33335H9.84997C10.6588 3.32539 11.443 3.61182 12.0562 4.13924C12.6695 4.66666 13.0701 5.3991 13.1833 6.20002C13.3943 7.80013 13.7857 9.37123 14.35 10.8834C14.5742 11.4799 14.6227 12.1282 14.4898 12.7515C14.3569 13.3748 14.0481 13.9469 13.6 14.4L11.4833 16.5167C13.8559 20.6893 17.3107 24.1441 21.4833 26.5167L23.6 24.4C24.0531 23.9519 24.6252 23.6431 25.2485 23.5102C25.8718 23.3772 26.5201 23.4258 27.1166 23.65C28.6288 24.2143 30.1999 24.6056 31.8 24.8167C32.6096 24.9309 33.349 25.3387 33.8775 25.9625C34.4061 26.5863 34.6869 27.3826 34.6666 28.2Z" stroke="#666666" stroke-width="2" stroke-linecap="round" stroke-linejoin="round"/>
</svg>
