<svg width="80" height="80" viewBox="0 0 80 80" fill="none" xmlns="http://www.w3.org/2000/svg">
<path fill-rule="evenodd" clip-rule="evenodd" d="M42.6563 6.5444C48.8409 7.13035 54.6188 8.63403 60.3672 10.9938C67.2918 13.8365 77.1055 14.6334 79.5891 21.7058C82.131 28.9442 72.0697 35.1083 71.5231 42.762C70.9052 51.4151 80.71 60.3439 76.2969 67.8079C72.1228 74.8677 61.1959 74.7538 53.0379 74.0263C46.1214 73.4096 41.7107 66.4819 35.1719 64.1406C29.2034 62.0036 21.4189 65.3985 16.7993 61.0507C12.1964 56.7188 14.9499 48.8145 12.6333 42.9285C9.30829 34.4804 -2.12046 27.9839 0.345498 19.2452C2.68145 10.9673 14.4281 9.88969 22.6532 7.42066C29.1786 5.46186 35.8745 5.90187 42.6563 6.5444Z" fill="url(#paint0_linear_4901_125)"/>
<path d="M39.8061 46.8169H41.2698C42.0081 46.8103 42.5916 46.6191 43.0201 46.2433C43.4553 45.8675 43.6728 45.3236 43.6728 44.6116C43.6728 43.9259 43.4915 43.3952 43.1289 43.0194C42.7729 42.637 42.2257 42.4459 41.4873 42.4459C40.8412 42.4459 40.3105 42.6338 39.8951 43.0095C39.4798 43.3787 39.2721 43.8633 39.2721 44.4633H36.869C36.869 43.7249 37.0635 43.0524 37.4525 42.4459C37.8481 41.8393 38.3953 41.3679 39.0941 41.0317C39.7996 40.6889 40.5874 40.5175 41.4576 40.5175C42.8949 40.5175 44.0223 40.8801 44.8398 41.6053C45.6639 42.3239 46.0759 43.326 46.0759 44.6116C46.0759 45.2577 45.8682 45.8675 45.4529 46.4411C45.0441 47.0081 44.5134 47.4366 43.8607 47.7267C44.6519 47.997 45.2518 48.4223 45.6606 49.0024C46.0759 49.5826 46.2836 50.2748 46.2836 51.0792C46.2836 52.3714 45.8386 53.3998 44.9486 54.1646C44.0651 54.9294 42.9015 55.3118 41.4576 55.3118C40.0732 55.3118 38.9392 54.9426 38.0557 54.2042C37.1723 53.4658 36.7306 52.4834 36.7306 51.2572H39.1337C39.1337 51.8901 39.3446 52.4043 39.7666 52.7999C40.1951 53.1955 40.7687 53.3932 41.4873 53.3932C42.2323 53.3932 42.8191 53.1955 43.2476 52.7999C43.6761 52.4043 43.8904 51.8307 43.8904 51.0792C43.8904 50.321 43.6662 49.7375 43.2179 49.3288C42.7696 48.92 42.1037 48.7156 41.2203 48.7156H39.8061V46.8169Z" fill="white"/>
<path d="M57.9232 49.0519C57.9232 51.122 57.5343 52.6845 56.7563 53.7394C55.9849 54.7876 54.8081 55.3118 53.2258 55.3118C51.6699 55.3118 50.4964 54.8008 49.7053 53.7789C48.9207 52.7504 48.5186 51.2308 48.4988 49.22V46.7279C48.4988 44.6578 48.8845 43.1051 49.6558 42.0701C50.4338 41.035 51.6172 40.5175 53.2061 40.5175C54.7818 40.5175 55.9553 41.0218 56.7266 42.0305C57.5046 43.0392 57.9035 44.549 57.9232 46.5598V49.0519ZM55.5201 46.362C55.5201 45.0105 55.3355 44.0215 54.9664 43.3952C54.5972 42.7623 54.0104 42.4459 53.2061 42.4459C52.4215 42.4459 51.8446 42.7458 51.4754 43.3458C51.1062 43.9391 50.9118 44.8687 50.892 46.1345V49.398C50.892 50.7429 51.0799 51.745 51.4557 52.4043C51.8315 53.0636 52.4215 53.3932 53.2258 53.3932C53.9972 53.3932 54.5675 53.09 54.9367 52.4834C55.3059 51.8703 55.5004 50.9143 55.5201 49.6156V46.362Z" fill="white"/>
<defs>
<linearGradient id="paint0_linear_4901_125" x1="38.7342" y1="8.27848" x2="40" y2="74.3544" gradientUnits="userSpaceOnUse">
<stop stop-color="#5ADFBF"/>
<stop offset="1" stop-color="#DF5AD2"/>
</linearGradient>
</defs>
</svg>
