<svg width="82" height="80" viewBox="0 0 82 80" fill="none" xmlns="http://www.w3.org/2000/svg">
<path fill-rule="evenodd" clip-rule="evenodd" d="M38.2335 0.996323C44.039 -0.00454069 50.4532 -0.917596 55.6752 1.7738C60.8931 4.46307 63.3855 10.3717 66.2537 15.4378C68.8305 19.989 69.5535 25.1449 71.6224 29.9409C74.1236 35.739 81.3549 40.6814 79.7772 46.7866C78.1834 52.9541 68.8044 53.3471 64.3763 57.9817C60.3962 62.1472 59.7305 68.6696 55.3167 72.3871C50.5061 76.4387 44.563 79.9892 38.2335 80C31.9036 80.0108 26.3889 75.9037 21.1219 72.4455C16.2756 69.2636 12.1941 65.2336 8.72499 60.6255C5.3298 56.1156 2.48794 51.2397 1.06461 45.8031C-0.378695 40.2901 -0.103631 34.6177 0.431964 28.9489C1.01988 22.7263 -0.22855 15.1544 4.36742 10.8459C9.12775 6.3833 17.2009 9.15326 23.5037 7.32018C28.7057 5.80723 32.8907 1.91744 38.2335 0.996323Z" fill="url(#paint0_linear_4901_206)"/>
<path d="M23.7398 40.5532H21.334V39.29H23.7398C24.1588 39.29 24.4973 39.2223 24.7554 39.0869C25.0136 38.9515 25.2019 38.7653 25.3204 38.5283C25.4431 38.2871 25.5045 38.012 25.5045 37.7031C25.5045 37.4111 25.4431 37.1382 25.3204 36.8843C25.2019 36.6261 25.0136 36.4188 24.7554 36.2622C24.4973 36.1056 24.1588 36.0273 23.7398 36.0273H21.8228V44H20.2296V34.7578H23.7398C24.455 34.7578 25.0622 34.8848 25.5616 35.1387C26.0652 35.3883 26.4481 35.7354 26.7105 36.1797C26.9729 36.6198 27.1041 37.1234 27.1041 37.6904C27.1041 38.2871 26.9729 38.7992 26.7105 39.2266C26.4481 39.654 26.0652 39.9819 25.5616 40.2104C25.0622 40.439 24.455 40.5532 23.7398 40.5532ZM31.3189 44.127C30.8111 44.127 30.3519 44.0444 29.9415 43.8794C29.5352 43.7101 29.1882 43.4753 28.9005 43.1748C28.6169 42.8743 28.399 42.521 28.2466 42.1147C28.0943 41.7085 28.0181 41.2705 28.0181 40.8008V40.5469C28.0181 40.0094 28.0964 39.5228 28.253 39.0869C28.4096 38.651 28.6275 38.2786 28.9068 37.9697C29.1861 37.6566 29.5162 37.4175 29.897 37.2524C30.2779 37.0874 30.6905 37.0049 31.1348 37.0049C31.6257 37.0049 32.0552 37.0874 32.4234 37.2524C32.7916 37.4175 33.0963 37.6502 33.3375 37.9507C33.5829 38.2469 33.7649 38.6003 33.8834 39.0107C34.0061 39.4212 34.0674 39.874 34.0674 40.3691V41.0229H28.7608V39.9248H32.5567V39.8042C32.5482 39.5291 32.4932 39.271 32.3917 39.0298C32.2943 38.7886 32.1441 38.5939 31.941 38.4458C31.7379 38.2977 31.467 38.2236 31.1285 38.2236C30.8746 38.2236 30.6482 38.2786 30.4493 38.3887C30.2546 38.4945 30.0917 38.6489 29.9605 38.8521C29.8293 39.0552 29.7278 39.3006 29.6558 39.5884C29.5881 39.8719 29.5543 40.1914 29.5543 40.5469V40.8008C29.5543 41.1012 29.5945 41.3805 29.6749 41.6387C29.7595 41.8926 29.8822 42.1147 30.043 42.3052C30.2038 42.4956 30.3985 42.6458 30.627 42.7559C30.8555 42.8617 31.1158 42.9146 31.4078 42.9146C31.7759 42.9146 32.1039 42.8405 32.3917 42.6924C32.6794 42.5443 32.9291 42.3348 33.1407 42.064L33.9468 42.8447C33.7987 43.0605 33.6062 43.2679 33.3692 43.4668C33.1322 43.6615 32.8423 43.8201 32.4996 43.9429C32.161 44.0656 31.7675 44.127 31.3189 44.127ZM36.7969 38.4395V44H35.2672V37.1318H36.7271L36.7969 38.4395ZM38.898 37.0874L38.8853 38.5093C38.7922 38.4924 38.6907 38.4797 38.5806 38.4712C38.4748 38.4627 38.369 38.4585 38.2632 38.4585C38.0009 38.4585 37.7702 38.4966 37.5714 38.5728C37.3725 38.6447 37.2053 38.7505 37.0699 38.8901C36.9387 39.0256 36.8371 39.1906 36.7652 39.3853C36.6933 39.5799 36.6509 39.7979 36.6382 40.0391L36.2891 40.0645C36.2891 39.6328 36.3314 39.2329 36.4161 38.8647C36.5007 38.4966 36.6277 38.1729 36.7969 37.8936C36.9704 37.6143 37.1863 37.3963 37.4444 37.2397C37.7068 37.0832 38.0093 37.0049 38.3521 37.0049C38.4452 37.0049 38.5447 37.0133 38.6505 37.0303C38.7605 37.0472 38.843 37.0662 38.898 37.0874ZM43.7095 42.1401C43.7095 41.9878 43.6714 41.8503 43.5953 41.7275C43.5191 41.6006 43.3731 41.4863 43.1573 41.3848C42.9457 41.2832 42.6325 41.1901 42.2178 41.1055C41.8539 41.0251 41.5196 40.9299 41.2149 40.8198C40.9144 40.7056 40.6563 40.568 40.4405 40.4072C40.2247 40.2464 40.0575 40.056 39.939 39.8359C39.8205 39.6159 39.7613 39.362 39.7613 39.0742C39.7613 38.7949 39.8227 38.5304 39.9454 38.2808C40.0681 38.0311 40.2437 37.811 40.4722 37.6206C40.7007 37.4302 40.9779 37.2799 41.3038 37.1699C41.6339 37.0599 42.002 37.0049 42.4083 37.0049C42.9838 37.0049 43.4768 37.1022 43.8873 37.2969C44.302 37.4873 44.6194 37.7476 44.8394 38.0776C45.0595 38.4035 45.1695 38.7716 45.1695 39.1821H43.6397C43.6397 39.0002 43.5932 38.8309 43.5001 38.6743C43.4112 38.5135 43.2758 38.3844 43.0938 38.2871C42.9118 38.1855 42.6833 38.1348 42.4083 38.1348C42.1459 38.1348 41.928 38.1771 41.7545 38.2617C41.5852 38.3421 41.4582 38.4479 41.3736 38.5791C41.2932 38.7103 41.253 38.8542 41.253 39.0107C41.253 39.125 41.2741 39.2287 41.3165 39.3218C41.363 39.4106 41.4392 39.4932 41.545 39.5693C41.6508 39.6413 41.7947 39.709 41.9766 39.7725C42.1628 39.8359 42.3956 39.8973 42.6749 39.9565C43.1996 40.0666 43.6503 40.2083 44.0269 40.3818C44.4078 40.5511 44.6998 40.7712 44.9029 41.042C45.106 41.3086 45.2076 41.6471 45.2076 42.0576C45.2076 42.3623 45.142 42.6416 45.0108 42.8955C44.8839 43.1452 44.6977 43.3631 44.4522 43.5493C44.2068 43.7313 43.9127 43.873 43.5699 43.9746C43.2313 44.0762 42.8505 44.127 42.4273 44.127C41.8052 44.127 41.2784 44.0169 40.8467 43.7969C40.4151 43.5726 40.0871 43.2869 39.8629 42.9399C39.6428 42.5887 39.5328 42.2248 39.5328 41.8481H41.0118C41.0287 42.1317 41.107 42.3581 41.2466 42.5273C41.3905 42.6924 41.5683 42.813 41.7798 42.8892C41.9957 42.9611 42.2178 42.9971 42.4464 42.9971C42.7214 42.9971 42.952 42.9611 43.1382 42.8892C43.3244 42.813 43.4662 42.7114 43.5635 42.5845C43.6609 42.4533 43.7095 42.3052 43.7095 42.1401ZM46.2549 40.6421V40.4961C46.2549 40.001 46.3269 39.5418 46.4708 39.1187C46.6146 38.6912 46.822 38.321 47.0928 38.0078C47.3679 37.6904 47.7022 37.445 48.0958 37.2715C48.4936 37.0938 48.9421 37.0049 49.4415 37.0049C49.945 37.0049 50.3936 37.0938 50.7872 37.2715C51.185 37.445 51.5214 37.6904 51.7964 38.0078C52.0715 38.321 52.281 38.6912 52.4249 39.1187C52.5687 39.5418 52.6407 40.001 52.6407 40.4961V40.6421C52.6407 41.1372 52.5687 41.5964 52.4249 42.0195C52.281 42.4427 52.0715 42.813 51.7964 43.1304C51.5214 43.4435 51.1871 43.689 50.7935 43.8667C50.4 44.0402 49.9535 44.127 49.4542 44.127C48.9506 44.127 48.4999 44.0402 48.1021 43.8667C47.7086 43.689 47.3742 43.4435 47.0992 43.1304C46.8241 42.813 46.6146 42.4427 46.4708 42.0195C46.3269 41.5964 46.2549 41.1372 46.2549 40.6421ZM47.7847 40.4961V40.6421C47.7847 40.951 47.8165 41.243 47.8799 41.5181C47.9434 41.7931 48.0429 42.0343 48.1783 42.2417C48.3137 42.4491 48.4872 42.612 48.6988 42.7305C48.9104 42.849 49.1622 42.9082 49.4542 42.9082C49.7377 42.9082 49.9831 42.849 50.1905 42.7305C50.4021 42.612 50.5756 42.4491 50.711 42.2417C50.8464 42.0343 50.9459 41.7931 51.0093 41.5181C51.077 41.243 51.1109 40.951 51.1109 40.6421V40.4961C51.1109 40.1914 51.077 39.9036 51.0093 39.6328C50.9459 39.3577 50.8443 39.1144 50.7047 38.9028C50.5692 38.6912 50.3957 38.5262 50.1841 38.4077C49.9768 38.285 49.7292 38.2236 49.4415 38.2236C49.1537 38.2236 48.904 38.285 48.6924 38.4077C48.4851 38.5262 48.3137 38.6912 48.1783 38.9028C48.0429 39.1144 47.9434 39.3577 47.8799 39.6328C47.8165 39.9036 47.7847 40.1914 47.7847 40.4961ZM55.44 38.5981V44H53.9102V37.1318H55.3511L55.44 38.5981ZM55.1671 40.312L54.6719 40.3057C54.6762 39.819 54.7439 39.3726 54.8751 38.9663C55.0105 38.5601 55.1967 38.2109 55.4337 37.9189C55.6749 37.627 55.9626 37.4027 56.2969 37.2461C56.6312 37.0853 57.0036 37.0049 57.4141 37.0049C57.7442 37.0049 58.0425 37.0514 58.3091 37.1445C58.58 37.2334 58.8106 37.3794 59.001 37.5825C59.1957 37.7856 59.3438 38.0501 59.4454 38.376C59.5469 38.6976 59.5977 39.0933 59.5977 39.563V44H58.0616V39.5566C58.0616 39.2266 58.0129 38.9663 57.9156 38.7759C57.8225 38.5812 57.685 38.4437 57.503 38.3633C57.3253 38.2786 57.1031 38.2363 56.8365 38.2363C56.5741 38.2363 56.3393 38.2913 56.1319 38.4014C55.9245 38.5114 55.7489 38.6616 55.605 38.8521C55.4654 39.0425 55.3575 39.2625 55.2813 39.5122C55.2051 39.7619 55.1671 40.0285 55.1671 40.312ZM65.0313 42.6226V39.3472C65.0313 39.1017 64.9869 38.8901 64.898 38.7124C64.8091 38.5347 64.6737 38.3971 64.4918 38.2998C64.314 38.2025 64.0897 38.1538 63.8189 38.1538C63.5692 38.1538 63.3534 38.1961 63.1714 38.2808C62.9895 38.3654 62.8477 38.4797 62.7462 38.6235C62.6446 38.7674 62.5938 38.9303 62.5938 39.1123H61.0704C61.0704 38.8415 61.136 38.5791 61.2672 38.3252C61.3983 38.0713 61.5888 37.8449 61.8384 37.646C62.0881 37.4471 62.3865 37.2905 62.7335 37.1763C63.0805 37.062 63.4698 37.0049 63.9014 37.0049C64.4177 37.0049 64.8747 37.0916 65.2725 37.2651C65.6745 37.4386 65.9898 37.701 66.2183 38.0522C66.4511 38.3993 66.5674 38.8351 66.5674 39.3599V42.4131C66.5674 42.7262 66.5886 43.0076 66.6309 43.2573C66.6775 43.5028 66.7431 43.7165 66.8277 43.8984V44H65.2598C65.1879 43.835 65.1308 43.6255 65.0884 43.3716C65.0504 43.1134 65.0313 42.8638 65.0313 42.6226ZM65.2535 39.8232L65.2662 40.769H64.168C63.8845 40.769 63.6348 40.7965 63.419 40.8516C63.2032 40.9023 63.0233 40.9785 62.8795 41.0801C62.7356 41.1816 62.6277 41.3044 62.5557 41.4482C62.4838 41.5921 62.4478 41.755 62.4478 41.937C62.4478 42.119 62.4901 42.2861 62.5748 42.4385C62.6594 42.5866 62.7821 42.703 62.9429 42.7876C63.108 42.8722 63.3069 42.9146 63.5396 42.9146C63.8528 42.9146 64.1257 42.8511 64.3585 42.7241C64.5954 42.5929 64.7816 42.4342 64.9171 42.248C65.0525 42.0576 65.1244 41.8778 65.1329 41.7085L65.628 42.3877C65.5772 42.5612 65.4905 42.7474 65.3677 42.9463C65.245 43.1452 65.0842 43.3356 64.8853 43.5176C64.6907 43.6953 64.4558 43.8413 64.1807 43.9556C63.9099 44.0698 63.5967 44.127 63.2413 44.127C62.7927 44.127 62.3928 44.0381 62.0416 43.8604C61.6903 43.6784 61.4153 43.4351 61.2164 43.1304C61.0175 42.8215 60.918 42.4723 60.918 42.083C60.918 41.7191 60.9857 41.3975 61.1212 41.1182C61.2608 40.8346 61.4639 40.5977 61.7305 40.4072C62.0014 40.2168 62.3314 40.0729 62.7208 39.9756C63.1101 39.874 63.5544 39.8232 64.0538 39.8232H65.2535ZM21.7149 49.25V59H20.1788V49.25H21.7149ZM25.0284 52.1318V59H23.4922V52.1318H25.0284ZM23.3907 50.3291C23.3907 50.0964 23.4669 49.9038 23.6192 49.7515C23.7758 49.5949 23.9916 49.5166 24.2667 49.5166C24.5375 49.5166 24.7512 49.5949 24.9078 49.7515C25.0644 49.9038 25.1426 50.0964 25.1426 50.3291C25.1426 50.5576 25.0644 50.748 24.9078 50.9004C24.7512 51.0527 24.5375 51.1289 24.2667 51.1289C23.9916 51.1289 23.7758 51.0527 23.6192 50.9004C23.4669 50.748 23.3907 50.5576 23.3907 50.3291ZM32.0172 57.7812V59H26.9009V57.7812H32.0172ZM31.8775 53.084L27.4214 59H26.4312V58.0161L30.8619 52.1318H31.8775V53.084ZM31.2872 52.1318V53.3506H26.5074V52.1318H31.2872ZM37.1143 57.6226V54.3472C37.1143 54.1017 37.0699 53.8901 36.981 53.7124C36.8922 53.5347 36.7567 53.3971 36.5748 53.2998C36.397 53.2025 36.1727 53.1538 35.9019 53.1538C35.6522 53.1538 35.4364 53.1961 35.2545 53.2808C35.0725 53.3654 34.9307 53.4797 34.8292 53.6235C34.7276 53.7674 34.6768 53.9303 34.6768 54.1123H33.1534C33.1534 53.8415 33.219 53.5791 33.3502 53.3252C33.4813 53.0713 33.6718 52.8449 33.9214 52.646C34.1711 52.4471 34.4695 52.2905 34.8165 52.1763C35.1635 52.062 35.5528 52.0049 35.9844 52.0049C36.5007 52.0049 36.9577 52.0916 37.3555 52.2651C37.7575 52.4386 38.0728 52.701 38.3013 53.0522C38.5341 53.3993 38.6505 53.8351 38.6505 54.3599V57.4131C38.6505 57.7262 38.6716 58.0076 38.7139 58.2573C38.7605 58.5028 38.8261 58.7165 38.9107 58.8984V59H37.3428C37.2709 58.835 37.2138 58.6255 37.1714 58.3716C37.1334 58.1134 37.1143 57.8638 37.1143 57.6226ZM37.3365 54.8232L37.3492 55.769H36.251C35.9675 55.769 35.7178 55.7965 35.502 55.8516C35.2862 55.9023 35.1063 55.9785 34.9625 56.0801C34.8186 56.1816 34.7107 56.3044 34.6387 56.4482C34.5668 56.5921 34.5308 56.755 34.5308 56.937C34.5308 57.119 34.5731 57.2861 34.6578 57.4385C34.7424 57.5866 34.8651 57.703 35.0259 57.7876C35.191 57.8722 35.3899 57.9146 35.6226 57.9146C35.9358 57.9146 36.2087 57.8511 36.4415 57.7241C36.6784 57.5929 36.8646 57.4342 37.0001 57.248C37.1355 57.0576 37.2074 56.8778 37.2159 56.7085L37.711 57.3877C37.6602 57.5612 37.5735 57.7474 37.4507 57.9463C37.328 58.1452 37.1672 58.3356 36.9683 58.5176C36.7737 58.6953 36.5388 58.8413 36.2637 58.9556C35.9929 59.0698 35.6797 59.127 35.3243 59.127C34.8757 59.127 34.4758 59.0381 34.1246 58.8604C33.7733 58.6784 33.4983 58.4351 33.2994 58.1304C33.1005 57.8215 33.001 57.4723 33.001 57.083C33.001 56.7191 33.0687 56.3975 33.2042 56.1182C33.3438 55.8346 33.5469 55.5977 33.8135 55.4072C34.0844 55.2168 34.4144 55.0729 34.8038 54.9756C35.1931 54.874 35.6374 54.8232 36.1368 54.8232H37.3365ZM44.4395 57.5781V49.25H45.9756V59H44.5855L44.4395 57.5781ZM39.9708 55.6421V55.5088C39.9708 54.9883 40.0321 54.5143 40.1548 54.0869C40.2776 53.6553 40.4553 53.285 40.688 52.9761C40.9208 52.6629 41.2043 52.4238 41.5386 52.2588C41.8729 52.0895 42.2496 52.0049 42.6685 52.0049C43.0832 52.0049 43.4472 52.0853 43.7603 52.2461C44.0735 52.4069 44.3401 52.6375 44.5601 52.938C44.7802 53.2342 44.9558 53.5897 45.087 54.0044C45.2182 54.4149 45.3113 54.8719 45.3663 55.3755V55.8008C45.3113 56.2917 45.2182 56.7402 45.087 57.1465C44.9558 57.5527 44.7802 57.904 44.5601 58.2002C44.3401 58.4964 44.0714 58.7249 43.754 58.8857C43.4408 59.0465 43.0748 59.127 42.6558 59.127C42.2411 59.127 41.8666 59.0402 41.5323 58.8667C41.2022 58.6932 40.9208 58.4499 40.688 58.1367C40.4553 57.8236 40.2776 57.4554 40.1548 57.0322C40.0321 56.6048 39.9708 56.1414 39.9708 55.6421ZM41.5005 55.5088V55.6421C41.5005 55.9552 41.5281 56.2472 41.5831 56.5181C41.6423 56.7889 41.7333 57.028 41.856 57.2354C41.9787 57.4385 42.1374 57.5993 42.3321 57.7178C42.531 57.832 42.768 57.8892 43.043 57.8892C43.39 57.8892 43.6757 57.813 43.9 57.6606C44.1242 57.5083 44.2999 57.3031 44.4268 57.0449C44.558 56.7826 44.6469 56.4906 44.6934 56.1689V55.02C44.668 54.7703 44.6151 54.5376 44.5347 54.3218C44.4586 54.106 44.3549 53.9176 44.2237 53.7568C44.0925 53.5918 43.9296 53.4648 43.7349 53.376C43.5445 53.2829 43.3181 53.2363 43.0557 53.2363C42.7764 53.2363 42.5394 53.2956 42.3448 53.4141C42.1501 53.5326 41.9893 53.6955 41.8624 53.9028C41.7396 54.1102 41.6487 54.3514 41.5894 54.6265C41.5302 54.9015 41.5005 55.1956 41.5005 55.5088ZM47.2833 55.6421V55.4961C47.2833 55.001 47.3552 54.5418 47.4991 54.1187C47.643 53.6912 47.8503 53.321 48.1212 53.0078C48.3962 52.6904 48.7305 52.445 49.1241 52.2715C49.5219 52.0938 49.9704 52.0049 50.4698 52.0049C50.9734 52.0049 51.4219 52.0938 51.8155 52.2715C52.2133 52.445 52.5497 52.6904 52.8248 53.0078C53.0998 53.321 53.3093 53.6912 53.4532 54.1187C53.5971 54.5418 53.669 55.001 53.669 55.4961V55.6421C53.669 56.1372 53.5971 56.5964 53.4532 57.0195C53.3093 57.4427 53.0998 57.813 52.8248 58.1304C52.5497 58.4435 52.2154 58.689 51.8218 58.8667C51.4283 59.0402 50.9818 59.127 50.4825 59.127C49.9789 59.127 49.5282 59.0402 49.1304 58.8667C48.7369 58.689 48.4026 58.4435 48.1275 58.1304C47.8524 57.813 47.643 57.4427 47.4991 57.0195C47.3552 56.5964 47.2833 56.1372 47.2833 55.6421ZM48.813 55.4961V55.6421C48.813 55.951 48.8448 56.243 48.9083 56.5181C48.9717 56.7931 49.0712 57.0343 49.2066 57.2417C49.342 57.4491 49.5155 57.612 49.7271 57.7305C49.9387 57.849 50.1905 57.9082 50.4825 57.9082C50.766 57.9082 51.0115 57.849 51.2188 57.7305C51.4304 57.612 51.6039 57.4491 51.7393 57.2417C51.8747 57.0343 51.9742 56.7931 52.0377 56.5181C52.1054 56.243 52.1392 55.951 52.1392 55.6421V55.4961C52.1392 55.1914 52.1054 54.9036 52.0377 54.6328C51.9742 54.3577 51.8726 54.1144 51.733 53.9028C51.5976 53.6912 51.4241 53.5262 51.2125 53.4077C51.0051 53.285 50.7575 53.2236 50.4698 53.2236C50.182 53.2236 49.9324 53.285 49.7208 53.4077C49.5134 53.5262 49.342 53.6912 49.2066 53.9028C49.0712 54.1144 48.9717 54.3577 48.9083 54.6328C48.8448 54.9036 48.813 55.1914 48.813 55.4961Z" fill="white"/>
<defs>
<linearGradient id="paint0_linear_4901_206" x1="40" y1="0" x2="40" y2="80" gradientUnits="userSpaceOnUse">
<stop stop-color="#FC9C2A"/>
<stop offset="1" stop-color="#FD4C7E"/>
</linearGradient>
</defs>
</svg>
