<svg width="82" height="80" viewBox="0 0 82 80" fill="none" xmlns="http://www.w3.org/2000/svg">
<path fill-rule="evenodd" clip-rule="evenodd" d="M36.2788 0.0461774C49.2341 0.849842 55.5994 14.6138 63.5137 24.757C71.143 34.5349 82.6878 43.9567 79.9286 55.9889C77.1667 68.0332 63.2642 73.1041 51.472 77.2685C41.5351 80.7777 30.8588 81.2438 21.3804 76.6652C11.9851 72.1267 5.7409 63.5931 2.71988 53.7184C-0.636094 42.7489 -1.72099 30.8422 4.37753 21.0885C11.4407 9.79205 22.8442 -0.787216 36.2788 0.0461774Z" fill="url(#paint0_linear_4901_230)"/>
<path d="M44.0796 44.3138V46.3267H43.7754C42.3962 46.3467 41.2942 46.7206 40.4694 47.4483C39.6445 48.176 39.1544 49.2075 38.9989 50.5428C39.7899 49.7216 40.8006 49.311 42.0311 49.311C43.3359 49.311 44.3636 49.765 45.114 50.6729C45.8712 51.5809 46.2498 52.7526 46.2498 54.188C46.2498 55.6701 45.807 56.8719 44.9213 57.7932C44.0424 58.7078 42.8863 59.1652 41.4531 59.1652C39.9792 59.1652 38.7825 58.6277 37.8631 57.5528C36.9504 56.478 36.494 55.0693 36.494 53.3268V52.4956C36.494 49.9385 37.1228 47.9357 38.3803 46.4869C39.6445 45.0382 41.4598 44.3138 43.8261 44.3138H44.0796ZM41.4328 51.2738C40.8919 51.2738 40.395 51.424 39.942 51.7245C39.4958 52.0249 39.1679 52.4255 38.9583 52.9262V53.6672C38.9583 54.7488 39.1882 55.61 39.6479 56.251C40.1077 56.8852 40.7026 57.2023 41.4328 57.2023C42.1629 57.2023 42.741 56.9319 43.1669 56.3912C43.5928 55.8504 43.8058 55.1394 43.8058 54.2581C43.8058 53.3768 43.5895 52.6591 43.1568 52.105C42.7241 51.5509 42.1494 51.2738 41.4328 51.2738Z" fill="white"/>
<path d="M57.8412 52.826C57.8412 54.9224 57.4423 56.5047 56.6446 57.5729C55.8535 58.6344 54.6467 59.1652 53.0242 59.1652C51.4286 59.1652 50.2252 58.6478 49.4139 57.6129C48.6094 56.5714 48.1969 55.0325 48.1767 52.9963V50.4726C48.1767 48.3763 48.5722 46.804 49.3632 45.7559C50.161 44.7077 51.3745 44.1836 53.0039 44.1836C54.6197 44.1836 55.8231 44.6943 56.6141 45.7158C57.4119 46.7373 57.8209 48.2661 57.8412 50.3024V52.826ZM55.3769 50.1021C55.3769 48.7335 55.1876 47.732 54.809 47.0978C54.4304 46.4569 53.8287 46.1364 53.0039 46.1364C52.1993 46.1364 51.6078 46.4402 51.2292 47.0477C50.8506 47.6486 50.6511 48.5899 50.6308 49.8718V53.1765C50.6308 54.5385 50.8235 55.5533 51.2089 56.2209C51.5942 56.8886 52.1993 57.2224 53.0242 57.2224C53.8152 57.2224 54.4 56.9153 54.7786 56.301C55.1572 55.6801 55.3566 54.7121 55.3769 53.3969V50.1021Z" fill="white"/>
<defs>
<linearGradient id="paint0_linear_4901_230" x1="40.1729" y1="0" x2="40.1729" y2="80" gradientUnits="userSpaceOnUse">
<stop stop-color="#15A1DD"/>
<stop offset="1" stop-color="#34C789"/>
</linearGradient>
</defs>
</svg>
