<svg width="80" height="80" viewBox="0 0 80 80" fill="none" xmlns="http://www.w3.org/2000/svg">
<path fill-rule="evenodd" clip-rule="evenodd" d="M33.983 0.42589C39.6428 1.39151 43.5757 6.37431 48.7518 8.85742C53.935 11.3439 61.1739 10.491 64.5929 15.1102C68.037 19.7632 64.6076 26.584 66.0261 32.1952C67.4864 37.9713 74.2558 42.5792 73.0103 48.4053C71.77 54.2066 64.7633 56.6824 60.0267 60.2584C56.1197 63.208 51.4676 64.7132 47.5397 67.6349C42.6365 71.282 39.9125 78.1474 33.983 79.6302C28.1553 81.0876 22.1274 77.9413 16.711 75.3445C11.2904 72.7458 5.60517 69.7289 2.54431 64.5578C-0.464437 59.4748 -0.0109605 53.1429 0.0740954 47.2379C0.147443 42.1457 1.82806 37.3932 3.00695 32.4386C4.17645 27.5235 4.88991 22.6002 7.02588 18.0212C9.52116 12.6718 11.6233 6.59397 16.5681 3.36648C21.5596 0.108418 28.1061 -0.576794 33.983 0.42589Z" fill="url(#paint0_linear_4901_149)"/>
<path d="M27.8382 53.6709H25.445V42.1103L21.9146 43.3168V41.2895L27.5316 39.2227H27.8382V53.6709Z" fill="white"/>
<path d="M42.5237 53.6709H32.8422V52.0194L37.6384 46.7879C38.3307 46.0166 38.8219 45.3738 39.1119 44.8595C39.4086 44.3387 39.557 43.8179 39.557 43.297C39.557 42.6114 39.3625 42.0576 38.9735 41.6357C38.5911 41.2137 38.0736 41.0027 37.4209 41.0027C36.6429 41.0027 36.0397 41.2401 35.6111 41.7148C35.1826 42.1895 34.9683 42.8388 34.9683 43.6629H32.5653C32.5653 42.7861 32.763 41.9983 33.1586 41.2994C33.5608 40.594 34.1311 40.0468 34.8695 39.6578C35.6144 39.2688 36.4715 39.0743 37.4407 39.0743C38.8383 39.0743 39.9393 39.4271 40.7437 40.1325C41.5546 40.8313 41.96 41.8005 41.96 43.0399C41.96 43.7585 41.7557 44.5134 41.3469 45.3046C40.9447 46.0891 40.2822 46.9824 39.3592 47.9845L35.8386 51.7523H42.5237V53.6709Z" fill="white"/>
<path d="M53.7381 47.6088C53.7381 49.6789 53.3491 51.2414 52.5712 52.2963C51.7998 53.3445 50.623 53.8686 49.0407 53.8686C47.4848 53.8686 46.3113 53.3577 45.5202 52.3358C44.7356 51.3073 44.3335 49.7877 44.3137 47.7769V45.2848C44.3137 43.2146 44.6994 41.662 45.4707 40.627C46.2487 39.5919 47.4321 39.0743 49.021 39.0743C50.5966 39.0743 51.7702 39.5787 52.5415 40.5874C53.3195 41.5961 53.7183 43.1059 53.7381 45.1167V47.6088ZM51.335 44.9189C51.335 43.5674 51.1504 42.5784 50.7812 41.9521C50.412 41.3192 49.8253 41.0027 49.021 41.0027C48.2364 41.0027 47.6595 41.3027 47.2903 41.9027C46.9211 42.496 46.7267 43.4256 46.7069 44.6914V47.9549C46.7069 49.2998 46.8948 50.3019 47.2706 50.9612C47.6463 51.6205 48.2364 51.9501 49.0407 51.9501C49.8121 51.9501 50.3824 51.6469 50.7516 51.0403C51.1208 50.4272 51.3153 49.4712 51.335 48.1724V44.9189Z" fill="white"/>
<defs>
<linearGradient id="paint0_linear_4901_149" x1="36.5812" y1="0" x2="36.5812" y2="80" gradientUnits="userSpaceOnUse">
<stop stop-color="#F84D8A"/>
<stop offset="1" stop-color="#EA4646"/>
</linearGradient>
</defs>
</svg>
