<svg width="137" height="52" viewBox="0 0 137 52" fill="none" xmlns="http://www.w3.org/2000/svg">
<path d="M26.9297 26.2383C26.9297 31.9622 25.8542 36.2826 23.7031 39.1992C21.5703 42.0977 18.3164 43.5469 13.9414 43.5469C9.63932 43.5469 6.39453 42.1341 4.20703 39.3086C2.03776 36.4648 0.925781 32.263 0.871094 26.7031V19.8125C0.871094 14.0885 1.9375 9.79557 4.07031 6.93359C6.22135 4.07161 9.49349 2.64062 13.8867 2.64062C18.2435 2.64062 21.4883 4.03516 23.6211 6.82422C25.7721 9.61328 26.875 13.7878 26.9297 19.3477V26.2383ZM20.2852 18.8008C20.2852 15.0638 19.7747 12.3294 18.7539 10.5977C17.7331 8.84766 16.1107 7.97266 13.8867 7.97266C11.7174 7.97266 10.1224 8.80208 9.10156 10.4609C8.08073 12.1016 7.54297 14.6719 7.48828 18.1719V27.1953C7.48828 30.9141 8.00781 33.6849 9.04688 35.5078C10.0859 37.3307 11.7174 38.2422 13.9414 38.2422C16.0742 38.2422 17.651 37.4036 18.6719 35.7266C19.6927 34.0312 20.2305 31.388 20.2852 27.7969V18.8008ZM58.7578 26.2383C58.7578 31.9622 57.6823 36.2826 55.5312 39.1992C53.3984 42.0977 50.1445 43.5469 45.7695 43.5469C41.4674 43.5469 38.2227 42.1341 36.0352 39.3086C33.8659 36.4648 32.7539 32.263 32.6992 26.7031V19.8125C32.6992 14.0885 33.7656 9.79557 35.8984 6.93359C38.0495 4.07161 41.3216 2.64062 45.7148 2.64062C50.0716 2.64062 53.3164 4.03516 55.4492 6.82422C57.6003 9.61328 58.7031 13.7878 58.7578 19.3477V26.2383ZM52.1133 18.8008C52.1133 15.0638 51.6029 12.3294 50.582 10.5977C49.5612 8.84766 47.9388 7.97266 45.7148 7.97266C43.5456 7.97266 41.9505 8.80208 40.9297 10.4609C39.9089 12.1016 39.3711 14.6719 39.3164 18.1719V27.1953C39.3164 30.9141 39.8359 33.6849 40.875 35.5078C41.9141 37.3307 43.5456 38.2422 45.7695 38.2422C47.9023 38.2422 49.4792 37.4036 50.5 35.7266C51.5208 34.0312 52.0586 31.388 52.1133 27.7969V18.8008ZM66.0039 51.9688L62.4219 49.8359C63.4792 48.1771 64.1992 46.7279 64.582 45.4883C64.9831 44.2669 65.1927 43.0182 65.2109 41.7422V36.5742H71.1992L71.1719 41.3594C71.1536 43.2917 70.6615 45.224 69.6953 47.1562C68.7474 49.1068 67.5169 50.7109 66.0039 51.9688Z" fill="#AB49CE"/>
<path d="M94.3984 10.8164C94.3984 13.2695 93.9375 15.1211 93.0156 16.3711C92.1016 17.6133 90.707 18.2344 88.832 18.2344C86.9883 18.2344 85.5977 17.6289 84.6602 16.418C83.7305 15.1992 83.2539 13.3984 83.2305 11.0156V8.0625C83.2305 5.60938 83.6875 3.76953 84.6016 2.54297C85.5234 1.31641 86.9258 0.703125 88.8086 0.703125C90.6758 0.703125 92.0664 1.30078 92.9805 2.49609C93.9023 3.69141 94.375 5.48047 94.3984 7.86328V10.8164ZM91.5508 7.62891C91.5508 6.02734 91.332 4.85547 90.8945 4.11328C90.457 3.36328 89.7617 2.98828 88.8086 2.98828C87.8789 2.98828 87.1953 3.34375 86.7578 4.05469C86.3203 4.75781 86.0898 5.85938 86.0664 7.35938V11.2266C86.0664 12.8203 86.2891 14.0078 86.7344 14.7891C87.1797 15.5703 87.8789 15.9609 88.832 15.9609C89.7461 15.9609 90.4219 15.6016 90.8594 14.8828C91.2969 14.1562 91.5273 13.0234 91.5508 11.4844V7.62891ZM108.039 10.8164C108.039 13.2695 107.578 15.1211 106.656 16.3711C105.742 17.6133 104.348 18.2344 102.473 18.2344C100.629 18.2344 99.2383 17.6289 98.3008 16.418C97.3711 15.1992 96.8945 13.3984 96.8711 11.0156V8.0625C96.8711 5.60938 97.3281 3.76953 98.2422 2.54297C99.1641 1.31641 100.566 0.703125 102.449 0.703125C104.316 0.703125 105.707 1.30078 106.621 2.49609C107.543 3.69141 108.016 5.48047 108.039 7.86328V10.8164ZM105.191 7.62891C105.191 6.02734 104.973 4.85547 104.535 4.11328C104.098 3.36328 103.402 2.98828 102.449 2.98828C101.52 2.98828 100.836 3.34375 100.398 4.05469C99.9609 4.75781 99.7305 5.85938 99.707 7.35938V11.2266C99.707 12.8203 99.9297 14.0078 100.375 14.7891C100.82 15.5703 101.52 15.9609 102.473 15.9609C103.387 15.9609 104.062 15.6016 104.5 14.8828C104.938 14.1562 105.168 13.0234 105.191 11.4844V7.62891ZM84.2617 47.4648H82.0234L88.7383 28.9375H90.9766L84.2617 47.4648ZM95.6289 33.3203L95.7109 34.6445C96.6016 33.6055 97.8203 33.0859 99.3672 33.0859C101.062 33.0859 102.223 33.7344 102.848 35.0312C103.77 33.7344 105.066 33.0859 106.738 33.0859C108.137 33.0859 109.176 33.4727 109.855 34.2461C110.543 35.0195 110.895 36.1602 110.91 37.668V46H108.062V37.75C108.062 36.9453 107.887 36.3555 107.535 35.9805C107.184 35.6055 106.602 35.418 105.789 35.418C105.141 35.418 104.609 35.5938 104.195 35.9453C103.789 36.2891 103.504 36.7422 103.34 37.3047L103.352 46H100.504V37.6562C100.465 36.1641 99.7031 35.418 98.2188 35.418C97.0781 35.418 96.2695 35.8828 95.793 36.8125V46H92.9453V33.3203H95.6289ZM119.418 46.2344C117.613 46.2344 116.148 45.668 115.023 44.5352C113.906 43.3945 113.348 41.8789 113.348 39.9883V39.6367C113.348 38.3711 113.59 37.2422 114.074 36.25C114.566 35.25 115.254 34.4727 116.137 33.918C117.02 33.3633 118.004 33.0859 119.09 33.0859C120.816 33.0859 122.148 33.6367 123.086 34.7383C124.031 35.8398 124.504 37.3984 124.504 39.4141V40.5625H116.219C116.305 41.6094 116.652 42.4375 117.262 43.0469C117.879 43.6562 118.652 43.9609 119.582 43.9609C120.887 43.9609 121.949 43.4336 122.77 42.3789L124.305 43.8438C123.797 44.6016 123.117 45.1914 122.266 45.6133C121.422 46.0273 120.473 46.2344 119.418 46.2344ZM119.078 35.3711C118.297 35.3711 117.664 35.6445 117.18 36.1914C116.703 36.7383 116.398 37.5 116.266 38.4766H121.691V38.2656C121.629 37.3125 121.375 36.5938 120.93 36.1094C120.484 35.6172 119.867 35.3711 119.078 35.3711ZM122.922 31.2461V31.375H120.637L118.879 29.5469L117.133 31.375H114.871V31.2227L118.047 27.9883H119.723L122.922 31.2461ZM133.832 42.5547C133.832 42.0469 133.621 41.6602 133.199 41.3945C132.785 41.1289 132.094 40.8945 131.125 40.6914C130.156 40.4883 129.348 40.2305 128.699 39.918C127.277 39.2305 126.566 38.2344 126.566 36.9297C126.566 35.8359 127.027 34.9219 127.949 34.1875C128.871 33.4531 130.043 33.0859 131.465 33.0859C132.98 33.0859 134.203 33.4609 135.133 34.2109C136.07 34.9609 136.539 35.9336 136.539 37.1289H133.691C133.691 36.582 133.488 36.1289 133.082 35.7695C132.676 35.4023 132.137 35.2188 131.465 35.2188C130.84 35.2188 130.328 35.3633 129.93 35.6523C129.539 35.9414 129.344 36.3281 129.344 36.8125C129.344 37.25 129.527 37.5898 129.895 37.832C130.262 38.0742 131.004 38.3203 132.121 38.5703C133.238 38.8125 134.113 39.1055 134.746 39.4492C135.387 39.7852 135.859 40.1914 136.164 40.668C136.477 41.1445 136.633 41.7227 136.633 42.4023C136.633 43.543 136.16 44.4688 135.215 45.1797C134.27 45.8828 133.031 46.2344 131.5 46.2344C130.461 46.2344 129.535 46.0469 128.723 45.6719C127.91 45.2969 127.277 44.7812 126.824 44.125C126.371 43.4688 126.145 42.7617 126.145 42.0039H128.91C128.949 42.6758 129.203 43.1953 129.672 43.5625C130.141 43.9219 130.762 44.1016 131.535 44.1016C132.285 44.1016 132.855 43.9609 133.246 43.6797C133.637 43.3906 133.832 43.0156 133.832 42.5547Z" fill="#AB49CE"/>
</svg>
