<svg width="96" height="47" viewBox="0 0 96 47" fill="none" xmlns="http://www.w3.org/2000/svg">
<path d="M20.6836 20.3984V25.0469C20.6836 27.2734 20.4622 29.1745 20.0195 30.75C19.5898 32.3125 18.9648 33.582 18.1445 34.5586C17.3242 35.5352 16.3411 36.2513 15.1953 36.707C14.0625 37.1628 12.793 37.3906 11.3867 37.3906C10.2669 37.3906 9.22526 37.2474 8.26172 36.9609C7.3112 36.6745 6.45182 36.2253 5.68359 35.6133C4.91536 35.0013 4.25781 34.2135 3.71094 33.25C3.17708 32.2734 2.76042 31.1081 2.46094 29.7539C2.17448 28.3997 2.03125 26.8307 2.03125 25.0469V20.3984C2.03125 18.1589 2.2526 16.2708 2.69531 14.7344C3.13802 13.1849 3.76953 11.9284 4.58984 10.9648C5.41016 9.98828 6.38672 9.27865 7.51953 8.83594C8.66536 8.39323 9.94141 8.17188 11.3477 8.17188C12.4805 8.17188 13.5221 8.3151 14.4727 8.60156C15.4362 8.875 16.2956 9.3112 17.0508 9.91016C17.819 10.5091 18.4701 11.2904 19.0039 12.2539C19.5508 13.2044 19.9674 14.3568 20.2539 15.7109C20.5404 17.0521 20.6836 18.6146 20.6836 20.3984ZM15.9766 25.7109V19.6953C15.9766 18.5625 15.9115 17.5664 15.7812 16.707C15.651 15.8346 15.4557 15.099 15.1953 14.5C14.9479 13.888 14.6354 13.3932 14.2578 13.0156C13.8802 12.625 13.4505 12.3451 12.9688 12.1758C12.487 11.9935 11.9466 11.9023 11.3477 11.9023C10.6185 11.9023 9.96745 12.0456 9.39453 12.332C8.82161 12.6055 8.33984 13.0482 7.94922 13.6602C7.55859 14.2721 7.25911 15.0794 7.05078 16.082C6.85547 17.0716 6.75781 18.276 6.75781 19.6953V25.7109C6.75781 26.8568 6.82292 27.8659 6.95312 28.7383C7.08333 29.6107 7.27865 30.3594 7.53906 30.9844C7.79948 31.5964 8.11198 32.1042 8.47656 32.5078C8.85417 32.8984 9.28385 33.1849 9.76562 33.3672C10.2604 33.5495 10.8008 33.6406 11.3867 33.6406C12.1289 33.6406 12.7865 33.4974 13.3594 33.2109C13.9323 32.9245 14.4141 32.4688 14.8047 31.8438C15.1953 31.2057 15.4883 30.3789 15.6836 29.3633C15.8789 28.3477 15.9766 27.1302 15.9766 25.7109ZM43.418 20.3984V25.0469C43.418 27.2734 43.1966 29.1745 42.7539 30.75C42.3242 32.3125 41.6992 33.582 40.8789 34.5586C40.0586 35.5352 39.0755 36.2513 37.9297 36.707C36.7969 37.1628 35.5273 37.3906 34.1211 37.3906C33.0013 37.3906 31.9596 37.2474 30.9961 36.9609C30.0456 36.6745 29.1862 36.2253 28.418 35.6133C27.6497 35.0013 26.9922 34.2135 26.4453 33.25C25.9115 32.2734 25.4948 31.1081 25.1953 29.7539C24.9089 28.3997 24.7656 26.8307 24.7656 25.0469V20.3984C24.7656 18.1589 24.987 16.2708 25.4297 14.7344C25.8724 13.1849 26.5039 11.9284 27.3242 10.9648C28.1445 9.98828 29.1211 9.27865 30.2539 8.83594C31.3997 8.39323 32.6758 8.17188 34.082 8.17188C35.2148 8.17188 36.2565 8.3151 37.207 8.60156C38.1706 8.875 39.0299 9.3112 39.7852 9.91016C40.5534 10.5091 41.2044 11.2904 41.7383 12.2539C42.2852 13.2044 42.7018 14.3568 42.9883 15.7109C43.2747 17.0521 43.418 18.6146 43.418 20.3984ZM38.7109 25.7109V19.6953C38.7109 18.5625 38.6458 17.5664 38.5156 16.707C38.3854 15.8346 38.1901 15.099 37.9297 14.5C37.6823 13.888 37.3698 13.3932 36.9922 13.0156C36.6146 12.625 36.1849 12.3451 35.7031 12.1758C35.2214 11.9935 34.681 11.9023 34.082 11.9023C33.3529 11.9023 32.7018 12.0456 32.1289 12.332C31.556 12.6055 31.0742 13.0482 30.6836 13.6602C30.293 14.2721 29.9935 15.0794 29.7852 16.082C29.5898 17.0716 29.4922 18.276 29.4922 19.6953V25.7109C29.4922 26.8568 29.5573 27.8659 29.6875 28.7383C29.8177 29.6107 30.013 30.3594 30.2734 30.9844C30.5339 31.5964 30.8464 32.1042 31.2109 32.5078C31.5885 32.8984 32.0182 33.1849 32.5 33.3672C32.9948 33.5495 33.5352 33.6406 34.1211 33.6406C34.8633 33.6406 35.5208 33.4974 36.0938 33.2109C36.6667 32.9245 37.1484 32.4688 37.5391 31.8438C37.9297 31.2057 38.2227 30.3789 38.418 29.3633C38.6133 28.3477 38.7109 27.1302 38.7109 25.7109ZM52.3047 32.4688L52.2852 35.8281C52.2852 37.1562 51.9531 38.5234 51.2891 39.9297C50.625 41.3359 49.7461 42.4948 48.6523 43.4062L46.1328 41.9414C46.4974 41.3555 46.8294 40.763 47.1289 40.1641C47.4284 39.5651 47.6693 38.9271 47.8516 38.25C48.0339 37.5729 48.125 36.8242 48.125 36.0039V32.4688H52.3047Z" fill="black"/>
<path d="M67.2734 13.3594V15.2188C67.2734 16.1094 67.1849 16.8698 67.0078 17.5C66.8359 18.125 66.5859 18.6328 66.2578 19.0234C65.9297 19.4141 65.5365 19.7005 65.0781 19.8828C64.625 20.0651 64.1172 20.1562 63.5547 20.1562C63.1068 20.1562 62.6901 20.099 62.3047 19.9844C61.9245 19.8698 61.5807 19.6901 61.2734 19.4453C60.9661 19.2005 60.7031 18.8854 60.4844 18.5C60.2708 18.1094 60.1042 17.6432 59.9844 17.1016C59.8698 16.5599 59.8125 15.9323 59.8125 15.2188V13.3594C59.8125 12.4635 59.901 11.7083 60.0781 11.0938C60.2552 10.474 60.5078 9.97135 60.8359 9.58594C61.1641 9.19531 61.5547 8.91146 62.0078 8.73438C62.4661 8.55729 62.9766 8.46875 63.5391 8.46875C63.9922 8.46875 64.4089 8.52604 64.7891 8.64062C65.1745 8.75 65.5182 8.92448 65.8203 9.16406C66.1276 9.40365 66.388 9.71615 66.6016 10.1016C66.8203 10.4818 66.987 10.9427 67.1016 11.4844C67.2161 12.0208 67.2734 12.6458 67.2734 13.3594ZM65.3906 15.4844V13.0781C65.3906 12.625 65.3646 12.2266 65.3125 11.8828C65.2604 11.5339 65.1823 11.2396 65.0781 11C64.9792 10.7552 64.8542 10.5573 64.7031 10.4062C64.5521 10.25 64.3802 10.138 64.1875 10.0703C63.9948 9.9974 63.7786 9.96094 63.5391 9.96094C63.2474 9.96094 62.987 10.0182 62.7578 10.1328C62.5286 10.2422 62.3359 10.4193 62.1797 10.6641C62.0234 10.9089 61.9036 11.2318 61.8203 11.6328C61.7422 12.0286 61.7031 12.5104 61.7031 13.0781V15.4844C61.7031 15.9427 61.7292 16.3464 61.7812 16.6953C61.8333 17.0443 61.9115 17.3438 62.0156 17.5938C62.1198 17.8385 62.2448 18.0417 62.3906 18.2031C62.5417 18.3594 62.7135 18.474 62.9062 18.5469C63.1042 18.6198 63.3203 18.6562 63.5547 18.6562C63.8516 18.6562 64.1146 18.599 64.3438 18.4844C64.5729 18.3698 64.7656 18.1875 64.9219 17.9375C65.0781 17.6823 65.1953 17.3516 65.2734 16.9453C65.3516 16.5391 65.3906 16.0521 65.3906 15.4844ZM76.3672 13.3594V15.2188C76.3672 16.1094 76.2786 16.8698 76.1016 17.5C75.9297 18.125 75.6797 18.6328 75.3516 19.0234C75.0234 19.4141 74.6302 19.7005 74.1719 19.8828C73.7188 20.0651 73.2109 20.1562 72.6484 20.1562C72.2005 20.1562 71.7839 20.099 71.3984 19.9844C71.0182 19.8698 70.6745 19.6901 70.3672 19.4453C70.0599 19.2005 69.7969 18.8854 69.5781 18.5C69.3646 18.1094 69.1979 17.6432 69.0781 17.1016C68.9635 16.5599 68.9062 15.9323 68.9062 15.2188V13.3594C68.9062 12.4635 68.9948 11.7083 69.1719 11.0938C69.349 10.474 69.6016 9.97135 69.9297 9.58594C70.2578 9.19531 70.6484 8.91146 71.1016 8.73438C71.5599 8.55729 72.0703 8.46875 72.6328 8.46875C73.0859 8.46875 73.5026 8.52604 73.8828 8.64062C74.2682 8.75 74.612 8.92448 74.9141 9.16406C75.2214 9.40365 75.4818 9.71615 75.6953 10.1016C75.9141 10.4818 76.0807 10.9427 76.1953 11.4844C76.3099 12.0208 76.3672 12.6458 76.3672 13.3594ZM74.4844 15.4844V13.0781C74.4844 12.625 74.4583 12.2266 74.4062 11.8828C74.3542 11.5339 74.276 11.2396 74.1719 11C74.0729 10.7552 73.9479 10.5573 73.7969 10.4062C73.6458 10.25 73.474 10.138 73.2812 10.0703C73.0885 9.9974 72.8724 9.96094 72.6328 9.96094C72.3411 9.96094 72.0807 10.0182 71.8516 10.1328C71.6224 10.2422 71.4297 10.4193 71.2734 10.6641C71.1172 10.9089 70.9974 11.2318 70.9141 11.6328C70.8359 12.0286 70.7969 12.5104 70.7969 13.0781V15.4844C70.7969 15.9427 70.8229 16.3464 70.875 16.6953C70.9271 17.0443 71.0052 17.3438 71.1094 17.5938C71.2135 17.8385 71.3385 18.0417 71.4844 18.2031C71.6354 18.3594 71.8073 18.474 72 18.5469C72.1979 18.6198 72.4141 18.6562 72.6484 18.6562C72.9453 18.6562 73.2083 18.599 73.4375 18.4844C73.6667 18.3698 73.8594 18.1875 74.0156 17.9375C74.1719 17.6823 74.2891 17.3516 74.3672 16.9453C74.4453 16.5391 74.4844 16.0521 74.4844 15.4844ZM64.9141 27.625L60.4844 39.9766H59.0078L63.4453 27.625H64.9141ZM68.1016 32.2656V39H66.2188V30.5469H67.9922L68.1016 32.2656ZM67.7969 34.4609L67.1562 34.4531C67.1562 33.8698 67.2292 33.3307 67.375 32.8359C67.5208 32.3411 67.7344 31.9115 68.0156 31.5469C68.2969 31.1771 68.6458 30.8932 69.0625 30.6953C69.4844 30.4922 69.9714 30.3906 70.5234 30.3906C70.9089 30.3906 71.2604 30.4479 71.5781 30.5625C71.901 30.6719 72.1797 30.8464 72.4141 31.0859C72.6536 31.3255 72.8359 31.6328 72.9609 32.0078C73.0911 32.3828 73.1562 32.8359 73.1562 33.3672V39H71.2734V33.5312C71.2734 33.1198 71.2109 32.7969 71.0859 32.5625C70.9661 32.3281 70.7917 32.1615 70.5625 32.0625C70.3385 31.9583 70.0703 31.9062 69.7578 31.9062C69.4036 31.9062 69.1016 31.974 68.8516 32.1094C68.6068 32.2448 68.4062 32.4297 68.25 32.6641C68.0938 32.8984 67.9792 33.1693 67.9062 33.4766C67.8333 33.7839 67.7969 34.112 67.7969 34.4609ZM73.0391 33.9609L72.1562 34.1562C72.1562 33.6458 72.2266 33.1641 72.3672 32.7109C72.513 32.2526 72.724 31.8516 73 31.5078C73.2812 31.1589 73.6276 30.8854 74.0391 30.6875C74.4505 30.4896 74.9219 30.3906 75.4531 30.3906C75.8854 30.3906 76.2708 30.4505 76.6094 30.5703C76.9531 30.6849 77.2448 30.8672 77.4844 31.1172C77.724 31.3672 77.9062 31.6927 78.0312 32.0938C78.1562 32.4896 78.2188 32.9688 78.2188 33.5312V39H76.3281V33.5234C76.3281 33.0964 76.2656 32.7656 76.1406 32.5312C76.0208 32.2969 75.849 32.1354 75.625 32.0469C75.401 31.9531 75.1328 31.9062 74.8203 31.9062C74.5286 31.9062 74.2708 31.9609 74.0469 32.0703C73.8281 32.1745 73.6432 32.3229 73.4922 32.5156C73.3411 32.7031 73.2266 32.9193 73.1484 33.1641C73.0755 33.4089 73.0391 33.6745 73.0391 33.9609ZM83.8828 39.1562C83.2578 39.1562 82.6927 39.0547 82.1875 38.8516C81.6875 38.6432 81.2604 38.3542 80.9062 37.9844C80.5573 37.6146 80.2891 37.1797 80.1016 36.6797C79.9141 36.1797 79.8203 35.6406 79.8203 35.0625V34.75C79.8203 34.0885 79.9167 33.4896 80.1094 32.9531C80.3021 32.4167 80.5703 31.9583 80.9141 31.5781C81.2578 31.1927 81.6641 30.8984 82.1328 30.6953C82.6016 30.4922 83.1094 30.3906 83.6562 30.3906C84.2604 30.3906 84.7891 30.4922 85.2422 30.6953C85.6953 30.8984 86.0703 31.1849 86.3672 31.5547C86.6693 31.9193 86.8932 32.3542 87.0391 32.8594C87.1901 33.3646 87.2656 33.9219 87.2656 34.5312V35.3359H80.7344V33.9844H85.4062V33.8359C85.3958 33.4974 85.3281 33.1797 85.2031 32.8828C85.0833 32.5859 84.8984 32.3464 84.6484 32.1641C84.3984 31.9818 84.0651 31.8906 83.6484 31.8906C83.3359 31.8906 83.0573 31.9583 82.8125 32.0938C82.5729 32.224 82.3724 32.4141 82.2109 32.6641C82.0495 32.9141 81.9245 33.2161 81.8359 33.5703C81.7526 33.9193 81.7109 34.3125 81.7109 34.75V35.0625C81.7109 35.4323 81.7604 35.776 81.8594 36.0938C81.9635 36.4062 82.1146 36.6797 82.3125 36.9141C82.5104 37.1484 82.75 37.3333 83.0312 37.4688C83.3125 37.599 83.6328 37.6641 83.9922 37.6641C84.4453 37.6641 84.849 37.5729 85.2031 37.3906C85.5573 37.2083 85.8646 36.9505 86.125 36.6172L87.1172 37.5781C86.9349 37.8438 86.6979 38.099 86.4062 38.3438C86.1146 38.5833 85.7578 38.7786 85.3359 38.9297C84.9193 39.0807 84.4349 39.1562 83.8828 39.1562ZM84.0703 27L86.2344 29.1562V29.2422H84.7109L83.5156 28.0156L82.3203 29.2422H80.8281V29.1406L82.9609 27H84.0703ZM93.4766 36.7109C93.4766 36.5234 93.4297 36.3542 93.3359 36.2031C93.2422 36.0469 93.0625 35.9062 92.7969 35.7812C92.5365 35.6562 92.151 35.5417 91.6406 35.4375C91.1927 35.3385 90.7812 35.2214 90.4062 35.0859C90.0365 34.9453 89.7188 34.776 89.4531 34.5781C89.1875 34.3802 88.9818 34.1458 88.8359 33.875C88.6901 33.6042 88.6172 33.2917 88.6172 32.9375C88.6172 32.5938 88.6927 32.2682 88.8438 31.9609C88.9948 31.6536 89.2109 31.3828 89.4922 31.1484C89.7734 30.9141 90.1146 30.7292 90.5156 30.5938C90.9219 30.4583 91.375 30.3906 91.875 30.3906C92.5833 30.3906 93.1901 30.5104 93.6953 30.75C94.2057 30.9844 94.5964 31.3047 94.8672 31.7109C95.138 32.112 95.2734 32.5651 95.2734 33.0703H93.3906C93.3906 32.8464 93.3333 32.638 93.2188 32.4453C93.1094 32.2474 92.9427 32.0885 92.7188 31.9688C92.4948 31.8438 92.2135 31.7812 91.875 31.7812C91.5521 31.7812 91.2839 31.8333 91.0703 31.9375C90.862 32.0365 90.7057 32.1667 90.6016 32.3281C90.5026 32.4896 90.4531 32.6667 90.4531 32.8594C90.4531 33 90.4792 33.1276 90.5312 33.2422C90.5885 33.3516 90.6823 33.4531 90.8125 33.5469C90.9427 33.6354 91.1198 33.7188 91.3438 33.7969C91.5729 33.875 91.8594 33.9505 92.2031 34.0234C92.849 34.1589 93.4036 34.3333 93.8672 34.5469C94.3359 34.7552 94.6953 35.026 94.9453 35.3594C95.1953 35.6875 95.3203 36.1042 95.3203 36.6094C95.3203 36.9844 95.2396 37.3281 95.0781 37.6406C94.9219 37.9479 94.6927 38.2161 94.3906 38.4453C94.0885 38.6693 93.7266 38.8438 93.3047 38.9688C92.888 39.0938 92.4193 39.1562 91.8984 39.1562C91.1328 39.1562 90.4844 39.0208 89.9531 38.75C89.4219 38.474 89.0182 38.1224 88.7422 37.6953C88.4714 37.263 88.3359 36.8151 88.3359 36.3516H90.1562C90.1771 36.7005 90.2734 36.9792 90.4453 37.1875C90.6224 37.3906 90.8411 37.5391 91.1016 37.6328C91.3672 37.7214 91.6406 37.7656 91.9219 37.7656C92.2604 37.7656 92.5443 37.7214 92.7734 37.6328C93.0026 37.5391 93.1771 37.4141 93.2969 37.2578C93.4167 37.0964 93.4766 36.9141 93.4766 36.7109Z" fill="black"/>
</svg>
