<svg width="59" height="52" viewBox="0 0 59 52" fill="none" xmlns="http://www.w3.org/2000/svg">
<path fill-rule="evenodd" clip-rule="evenodd" d="M28.0119 0.0336595C34.0907 -0.385295 39.8868 3.16505 44.2376 7.43101C48.2159 11.3318 48.5339 17.268 50.7862 22.364C53.402 28.2822 61.0391 33.7201 58.4846 39.6651C55.857 45.7803 46.6545 44.6534 40.3246 46.7109C36.217 48.0461 32.2969 49.0282 28.0119 49.5702C22.9895 50.2054 17.6361 52.5928 13.2073 50.1406C8.67146 47.6291 7.54927 41.8376 5.46915 37.0884C3.12497 31.7364 -1.25999 26.3925 0.345076 20.7744C1.95572 15.1367 8.64219 13.0779 13.3336 9.56092C18.1178 5.97433 22.0466 0.444784 28.0119 0.0336595Z" fill="url(#paint0_linear_3322_382)"/>
<defs>
<linearGradient id="paint0_linear_3322_382" x1="29.5" y1="0" x2="29.5" y2="51.2242" gradientUnits="userSpaceOnUse">
<stop stop-color="#A23DDF"/>
<stop offset="1" stop-color="#F4AD43"/>
</linearGradient>
</defs>
</svg>
