<svg width="74" height="80" viewBox="0 0 74 80" fill="none" xmlns="http://www.w3.org/2000/svg">
<path fill-rule="evenodd" clip-rule="evenodd" d="M33.983 0.42589C39.6428 1.39151 43.5757 6.37431 48.7518 8.85742C53.935 11.3439 61.1739 10.491 64.5929 15.1102C68.037 19.7632 64.6076 26.584 66.0261 32.1952C67.4864 37.9713 74.2558 42.5792 73.0103 48.4053C71.77 54.2066 64.7633 56.6824 60.0267 60.2584C56.1197 63.208 51.4676 64.7132 47.5397 67.6349C42.6365 71.282 39.9125 78.1474 33.983 79.6302C28.1553 81.0876 22.1274 77.9413 16.711 75.3445C11.2904 72.7458 5.60517 69.7289 2.54431 64.5578C-0.464437 59.4748 -0.0109605 53.1429 0.0740954 47.2379C0.147443 42.1457 1.82806 37.3932 3.00695 32.4386C4.17645 27.5235 4.88991 22.6002 7.02588 18.0212C9.52116 12.6718 11.6233 6.59397 16.5681 3.36648C21.5596 0.108418 28.1061 -0.576794 33.983 0.42589Z" fill="url(#paint0_linear_3322_127)"/>
<defs>
<linearGradient id="paint0_linear_3322_127" x1="36.5812" y1="0" x2="36.5812" y2="80" gradientUnits="userSpaceOnUse">
<stop stop-color="#F84D8A"/>
<stop offset="1" stop-color="#EA4646"/>
</linearGradient>
</defs>
</svg>
