<svg width="80" height="80" viewBox="0 0 80 80" fill="none" xmlns="http://www.w3.org/2000/svg">
<path fill-rule="evenodd" clip-rule="evenodd" d="M38.2336 0.996323C44.039 -0.00454069 50.4532 -0.917596 55.6752 1.7738C60.8931 4.46307 63.3855 10.3717 66.2537 15.4378C68.8305 19.989 69.5535 25.1449 71.6224 29.9409C74.1236 35.739 81.3549 40.6814 79.7772 46.7866C78.1834 52.9541 68.8044 53.3471 64.3763 57.9817C60.3962 62.1472 59.7305 68.6696 55.3167 72.3871C50.5061 76.4387 44.563 79.9892 38.2336 80C31.9036 80.0108 26.3889 75.9037 21.1219 72.4455C16.2756 69.2636 12.1941 65.2336 8.72499 60.6255C5.3298 56.1156 2.48794 51.2397 1.06461 45.8031C-0.378695 40.2901 -0.103631 34.6177 0.431964 28.9489C1.01988 22.7263 -0.22855 15.1544 4.36742 10.8459C9.12775 6.3833 17.2009 9.15326 23.5037 7.32018C28.7057 5.80723 32.8907 1.91744 38.2336 0.996323Z" fill="url(#paint0_linear_3322_208)"/>
<defs>
<linearGradient id="paint0_linear_3322_208" x1="40" y1="0" x2="40" y2="80" gradientUnits="userSpaceOnUse">
<stop stop-color="#FC9C2A"/>
<stop offset="1" stop-color="#FD4C7E"/>
</linearGradient>
</defs>
</svg>
