<svg width="80" height="69" viewBox="0 0 80 69" fill="none" xmlns="http://www.w3.org/2000/svg">
<path fill-rule="evenodd" clip-rule="evenodd" d="M42.6563 0.544396C48.8409 1.13035 54.6188 2.63403 60.3672 4.99382C67.2919 7.83647 77.1055 8.63341 79.5891 15.7058C82.131 22.9442 72.0697 29.1083 71.5231 36.762C70.9052 45.4151 80.71 54.3439 76.2969 61.8079C72.1228 68.8677 61.1959 68.7538 53.0379 68.0263C46.1214 67.4096 41.7107 60.4819 35.1719 58.1406C29.2034 56.0036 21.4189 59.3985 16.7993 55.0507C12.1964 50.7188 14.9499 42.8145 12.6333 36.9285C9.30829 28.4804 -2.12046 21.9839 0.345498 13.2452C2.68145 4.96729 14.4281 3.88969 22.6532 1.42066C29.1786 -0.538138 35.8745 -0.0981326 42.6563 0.544396Z" fill="url(#paint0_linear_3322_151)"/>
<defs>
<linearGradient id="paint0_linear_3322_151" x1="38.7342" y1="2.27848" x2="40" y2="68.3544" gradientUnits="userSpaceOnUse">
<stop stop-color="#5ADFBF"/>
<stop offset="1" stop-color="#DF5AD2"/>
</linearGradient>
</defs>
</svg>
